<?xml version="1.0" encoding="utf-8"?>
<!-- Generator: Adobe Illustrator 24.0.2, SVG Export Plug-In . SVG Version: 6.00 Build 0)  -->
<svg version="1.1" id="Layer_1" xmlns="http://www.w3.org/2000/svg" xmlns:xlink="http://www.w3.org/1999/xlink" x="0px" y="0px"
	 viewBox="0 0 204.66 76.57" style="enable-background:new 0 0 204.66 76.57;" xml:space="preserve">
<style type="text/css">
	.st0{clip-path:url(#SVGID_2_);fill:#23303F;}
	.st1{clip-path:url(#SVGID_2_);fill:#00A59C;}
</style>
<g>
	<defs>
		<rect id="SVGID_1_" y="0" width="204.66" height="76.57"/>
	</defs>
	<clipPath id="SVGID_2_">
		<use xlink:href="#SVGID_1_"  style="overflow:visible;"/>
	</clipPath>
	<path class="st0" d="M13.62,40.94c0-0.72-0.21-1.28-0.62-1.68c-0.41-0.4-1.25-0.83-2.5-1.3l-4.2-1.68
		c-2.19-0.87-3.77-1.93-4.74-3.2c-0.97-1.26-1.45-2.87-1.45-4.83c0-2.46,0.98-4.44,2.93-5.93c1.96-1.5,4.57-2.25,7.83-2.25
		c3.01,0,5.8,0.6,8.35,1.79v5.26c-2.73-0.83-5.28-1.25-7.65-1.25c-1.47,0-2.55,0.18-3.23,0.54c-0.68,0.36-1.02,0.94-1.02,1.73
		c0,0.62,0.21,1.11,0.62,1.49c0.41,0.38,1.28,0.84,2.61,1.38l4.09,1.68c2.23,0.9,3.81,1.95,4.76,3.14c0.95,1.19,1.43,2.75,1.43,4.66
		c0,2.67-1.01,4.83-3.04,6.48c-2.03,1.64-4.69,2.47-7.99,2.47c-3.7,0-6.96-0.74-9.8-2.22v-5.26c3.55,1.12,6.8,1.68,9.74,1.68
		C12.33,43.65,13.62,42.74,13.62,40.94"/>
	<path class="st0" d="M59.37,48.58V29.83c0-2.46-1.1-3.68-3.28-3.68c-1.94,0-3.9,0.47-5.87,1.41v0.54v20.49h-7.86V29.83
		c0-2.46-1.1-3.68-3.28-3.68c-2.01,0-3.98,0.49-5.92,1.46v20.98h-7.86V20.88h6.46l0.7,2.65c1.9-1.26,3.62-2.16,5.14-2.68
		c1.52-0.52,3.09-0.78,4.71-0.78c3.23,0,5.51,1.16,6.84,3.47c1.83-1.23,3.55-2.11,5.17-2.65c1.62-0.54,3.28-0.81,5.01-0.81
		c2.51,0,4.46,0.7,5.84,2.11c1.38,1.41,2.07,3.38,2.07,5.91v20.49H59.37z"/>
	<path class="st0" d="M82.86,44.13c0.9,0,1.82-0.2,2.77-0.6c0.95-0.4,1.84-0.94,2.67-1.63V37.2c-1.58-0.25-3-0.38-4.25-0.38
		c-3.12,0-4.68,1.26-4.68,3.79c0,1.12,0.31,1.99,0.91,2.6C80.88,43.83,81.75,44.13,82.86,44.13 M89.37,48.58l-0.65-2.44
		c-1.11,1.01-2.4,1.82-3.85,2.41c-1.45,0.6-2.86,0.89-4.23,0.89c-2.66,0-4.78-0.76-6.38-2.28c-1.6-1.52-2.4-3.54-2.4-6.07
		c0-1.74,0.43-3.26,1.29-4.58c0.86-1.32,2.1-2.36,3.71-3.12c1.62-0.76,3.52-1.14,5.71-1.14c1.72,0,3.62,0.24,5.71,0.7v-2.71
		c0-1.66-0.34-2.8-1.02-3.41c-0.68-0.61-1.94-0.92-3.77-0.92c-2.94,0-6.19,0.56-9.74,1.68v-5.26c1.33-0.69,3-1.24,5.01-1.65
		c2.01-0.42,4.06-0.62,6.14-0.62c3.7,0,6.4,0.75,8.1,2.25c1.7,1.5,2.56,3.86,2.56,7.07v19.19H89.37z"/>
	<path class="st0" d="M101.78,48.58V20.88h6.46l0.97,4.12c1.44-1.59,2.79-2.72,4.07-3.39c1.27-0.67,2.63-1,4.07-1
		c0.68,0,1.4,0.06,2.15,0.16v7.32c-1-0.22-2.12-0.33-3.34-0.33c-2.33,0-4.51,0.42-6.52,1.25v19.57H101.78z"/>
	<path class="st0" d="M141.11,47.87c-1.94,0.76-4.11,1.14-6.52,1.14c-3.05,0-5.3-0.72-6.76-2.17c-1.45-1.44-2.18-3.69-2.18-6.72
		V26.74h-4.15v-4.88l4.36-0.87l1.19-7.59h6.46v7.48h7.43v5.85h-7.43v13.01c0,1.16,0.29,1.97,0.86,2.44c0.57,0.47,1.54,0.7,2.91,0.7
		c1.11,0,2.39-0.11,3.82-0.33V47.87z"/>
	<path class="st1" d="M158.07,24.62c-2.55,0-4.95,0.83-7.21,2.49v15.12c2.26,1.74,4.63,2.6,7.11,2.6c4.95,0,7.43-3.36,7.43-10.08
		c0-3.43-0.6-5.98-1.8-7.64C162.39,25.45,160.55,24.62,158.07,24.62 M145.53,48.58V8.47h5.33V23.7c2.69-2.28,5.6-3.42,8.72-3.42
		c3.48,0,6.23,1.26,8.24,3.79c2.01,2.53,3.01,6,3.01,10.41c0,4.44-1.06,8-3.18,10.68c-2.12,2.67-4.93,4.01-8.45,4.01
		c-3.3,0-6.19-1.16-8.67-3.47l-0.59,2.87H145.53z"/>
	<path class="st1" d="M174.65,21.1h5.33v27.48h-5.33V21.1z M177.34,16.22c-1.04,0-1.86-0.3-2.45-0.89c-0.59-0.6-0.89-1.38-0.89-2.36
		c0-0.97,0.3-1.76,0.89-2.36c0.59-0.6,1.41-0.89,2.45-0.89c1.04,0,1.86,0.3,2.45,0.89c0.59,0.6,0.89,1.38,0.89,2.36
		c0,0.98-0.3,1.76-0.89,2.36C179.2,15.92,178.38,16.22,177.34,16.22"/>
	<polygon class="st1" points="182.91,48.58 182.91,44.46 198.58,25.33 183.45,25.33 183.45,21.1 204.5,21.1 204.5,25.17 
		188.62,44.35 204.66,44.35 204.66,48.58 	"/>
	<path class="st0" d="M180.91,72.43c-3.64,2.7-8.91,4.14-13.44,4.14c-6.36,0-12.09-2.37-16.42-6.31c-0.34-0.31-0.04-0.73,0.37-0.49
		c4.68,2.74,10.46,4.39,16.43,4.39c4.03,0,8.46-0.84,12.53-2.58C181,71.32,181.51,71.99,180.91,72.43"/>
	<path class="st0" d="M182.43,70.7c-0.47-0.6-3.07-0.28-4.25-0.14c-0.35,0.04-0.41-0.27-0.09-0.5c2.08-1.47,5.49-1.05,5.89-0.55
		c0.4,0.5-0.1,3.94-2.05,5.58c-0.3,0.25-0.59,0.12-0.45-0.22C181.91,73.76,182.89,71.3,182.43,70.7"/>
	<path class="st0" d="M178.26,59.66v-1.43c0-0.22,0.16-0.36,0.36-0.36h6.37c0.2,0,0.37,0.15,0.37,0.36v1.23
		c0,0.21-0.17,0.47-0.48,0.9l-3.3,4.74c1.22-0.03,2.52,0.16,3.63,0.79c0.25,0.14,0.32,0.35,0.34,0.56v1.53
		c0,0.21-0.23,0.45-0.47,0.33c-1.96-1.03-4.56-1.15-6.72,0.01c-0.22,0.12-0.45-0.12-0.45-0.33v-1.45c0-0.23,0.01-0.63,0.24-0.98
		l3.82-5.52l-3.32,0C178.43,60.02,178.26,59.88,178.26,59.66"/>
	<path class="st0" d="M190.83,57.69c2.87,0,4.43,2.48,4.43,5.64c0,3.05-1.72,5.47-4.43,5.47c-2.82,0-4.36-2.48-4.36-5.58
		C186.48,60.11,188.03,57.69,190.83,57.69 M190.85,59.73c-1.43,0-1.52,1.96-1.52,3.18c0,1.22-0.02,3.83,1.5,3.83
		c1.5,0,1.57-2.11,1.57-3.39c0-0.84-0.04-1.85-0.29-2.65C191.9,60,191.47,59.73,190.85,59.73"/>
	<path class="st0" d="M173.19,63.82c0,0.76,0.02,1.39-0.36,2.07c-0.31,0.55-0.8,0.89-1.34,0.89c-0.74,0-1.18-0.57-1.18-1.41
		c0-1.66,1.48-1.96,2.88-1.96V63.82z M176.64,66.76c-0.35-0.49-0.73-0.89-0.73-1.81v-3.04c0-1.29,0.09-2.47-0.85-3.36
		c-0.74-0.72-1.97-0.97-2.92-0.97c-1.84,0-3.9,0.69-4.33,2.98c-0.05,0.25,0.15,0.39,0.29,0.41l1.85,0.2
		c0.17,0.02,0.33-0.16,0.37-0.38c0.14-0.76,0.83-1.15,1.55-1.15c0.4,0,0.83,0.16,1.09,0.51c0.33,0.45,0.24,1.67,0.24,1.67
		c-1.12,0.13-2.59,0.21-3.64,0.68c-1.21,0.53-2.06,1.6-2.06,3.19c0,2.02,1.27,3.04,2.9,3.04c1.38,0,2.13-0.33,3.19-1.42
		c0,0,0.45,0.78,1.11,1.3c0.1,0.07,0.33,0.07,0.46-0.05c0,0,1.09-0.96,1.49-1.29C176.79,67.15,176.76,66.94,176.64,66.76"/>
	<path class="st0" d="M147.81,63.82c0,0.76,0.02,1.39-0.36,2.07c-0.31,0.55-0.8,0.89-1.34,0.89c-0.74,0-1.18-0.57-1.18-1.41
		c0-1.66,1.48-1.96,2.88-1.96V63.82z M151.25,66.76c-0.35-0.49-0.73-0.89-0.73-1.81v-3.04c0-1.29,0.09-2.47-0.85-3.36
		c-0.74-0.72-1.97-0.97-2.92-0.97c-1.84,0-3.9,0.69-4.33,2.98c-0.05,0.25,0.15,0.39,0.29,0.41l1.85,0.2
		c0.17,0.02,0.33-0.16,0.37-0.38c0.14-0.76,0.83-1.15,1.55-1.15c0.4,0,0.83,0.16,1.09,0.51c0.33,0.45,0.24,1.67,0.24,1.67
		c-1.12,0.13-2.59,0.21-3.64,0.68c-1.21,0.53-2.06,1.6-2.06,3.19c0,2.02,1.27,3.04,2.9,3.04c1.38,0,2.13-0.33,3.19-1.42
		c0,0,0.45,0.78,1.11,1.3c0.1,0.07,0.33,0.07,0.46-0.05c0,0,1.09-0.96,1.49-1.29C151.41,67.15,151.38,66.94,151.25,66.76"/>
	<path class="st0" d="M155.42,62.93c0-1.16-0.05-2.76,1.34-2.76c1.37,0,1.19,1.64,1.19,2.76l0,5.3c0,0.19,0.15,0.35,0.35,0.36h1.93
		c0.21,0,0.37-0.16,0.37-0.36v-5.3c0-0.57-0.02-1.41,0.18-1.92c0.2-0.51,0.69-0.82,1.16-0.82c0.56,0,0.99,0.19,1.14,0.86
		c0.09,0.4,0.05,1.45,0.05,1.87l0,5.3c0,0.19,0.15,0.35,0.35,0.36h1.94c0.21,0,0.37-0.16,0.37-0.36l0-6.31
		c0-1.07,0.13-2.29-0.49-3.14c-0.54-0.76-1.43-1.1-2.24-1.1c-1.14,0-2.21,0.59-2.68,1.85c-0.54-1.26-1.3-1.85-2.51-1.85
		c-1.19,0-2.08,0.59-2.55,1.85h-0.04v-1.28c0-0.2-0.16-0.37-0.36-0.37h-1.81c-0.2,0-0.36,0.16-0.36,0.37v9.96
		c0,0.2,0.16,0.36,0.36,0.36h1.93c0.2,0,0.36-0.16,0.36-0.36V62.93z"/>
	<path class="st0" d="M199.37,68.23c0,0.2-0.16,0.36-0.36,0.36h-1.93c-0.2,0-0.36-0.16-0.36-0.36v-9.97c0-0.2,0.16-0.36,0.36-0.36
		h1.79c0.21,0,0.36,0.17,0.36,0.28v1.52h0.04c0.54-1.37,1.3-2.02,2.64-2.02c0.87,0,1.72,0.32,2.26,1.18
		c0.51,0.8,0.51,2.15,0.51,3.12v6.3c-0.02,0.18-0.18,0.31-0.37,0.31h-1.94c-0.18-0.01-0.32-0.14-0.34-0.31l0-6.05
		c0-2.02-0.77-2.08-1.21-2.08c-0.52,0-0.93,0.41-1.11,0.78c-0.27,0.61-0.31,1.24-0.31,1.91V68.23z"/>
	<path class="st0" d="M124.17,60.46c-0.88,0-1.71,0.29-2.49,0.86v5.23c0.78,0.6,1.6,0.9,2.46,0.9c1.71,0,2.57-1.16,2.57-3.48
		c0-1.19-0.21-2.07-0.62-2.64C125.67,60.75,125.03,60.46,124.17,60.46 M119.84,68.74V54.88h1.84v5.26c0.93-0.79,1.93-1.18,3.01-1.18
		c1.2,0,2.15,0.44,2.85,1.31c0.69,0.87,1.04,2.07,1.04,3.6c0,1.54-0.37,2.77-1.1,3.69c-0.73,0.92-1.71,1.39-2.92,1.39
		c-1.14,0-2.14-0.4-3-1.2l-0.2,0.99H119.84z"/>
	<path class="st0" d="M132.96,68.83l-3.8-9.59h1.97l2.72,7.77l2.62-7.77h1.9l-4.3,11.16c-0.32,0.86-0.71,1.48-1.16,1.85
		c-0.45,0.38-1.03,0.56-1.72,0.56c-0.52,0-1-0.09-1.45-0.26v-1.33c0.34,0.09,0.69,0.13,1.06,0.13c0.46,0,0.82-0.11,1.09-0.35
		c0.27-0.23,0.51-0.64,0.72-1.23L132.96,68.83z"/>
	<path class="st0" d="M66.01,57.56H26.08c-1.24,0-2.25-1.01-2.25-2.26s1.01-2.26,2.25-2.26h39.94c1.24,0,2.25,1.01,2.25,2.26
		S67.25,57.56,66.01,57.56"/>
	<path class="st0" d="M66.04,17.48c-0.81,0-1.59-0.44-1.99-1.2l-5.7-10.84c-0.29-0.56-0.87-0.91-1.49-0.91H35.22
		c-0.61,0-1.17,0.34-1.45,0.88l-5.65,10.76c-0.57,1.08-1.89,1.63-2.99,1.11c-1.18-0.55-1.64-1.97-1.05-3.11l6.8-12.95
		C31.28,0.46,32.05,0,32.88,0h26.36c0.83,0,1.6,0.46,1.99,1.21l6.75,12.86c0.55,1.04,0.29,2.37-0.68,3.03
		C66.91,17.36,66.47,17.48,66.04,17.48"/>
	<path class="st0" d="M41.21,6.84c-1.2-0.2-2.33,0.67-2.59,1.87l-0.62,2.52l-0.01,0l-0.78,3.54c-0.28,1.26,0.55,2.51,1.83,2.72
		c1.2,0.2,2.33-0.67,2.59-1.87l0.66-3l0.01,0l0.73-3.05C43.32,8.3,42.49,7.06,41.21,6.84"/>
	<path class="st0" d="M50.88,6.84c1.2-0.2,2.33,0.67,2.59,1.87l0.62,2.52l0.01,0l0.78,3.54c0.28,1.26-0.55,2.51-1.83,2.72
		c-1.2,0.2-2.33-0.67-2.59-1.87l-0.66-3l-0.01,0l-0.73-3.05C48.77,8.3,49.6,7.06,50.88,6.84"/>
</g>
</svg>
