<svg id="Layer_2" data-name="Layer 2" xmlns="http://www.w3.org/2000/svg" viewBox="0 0 60 60"><defs><style>.cls-1{fill:#fffeff;}.cls-2{fill:#1ba396;}.cls-3{fill:#f06325;}.cls-4{fill:#fff;}</style></defs><circle class="cls-1" cx="29.92" cy="30.03" r="29.97"/><ellipse class="cls-2" cx="40.78" cy="38.62" rx="5.52" ry="5.34"/><path class="cls-3" d="M47.43,38.06a6.65,6.65,0,0,0-3.2-5,6.54,6.54,0,0,0-4.28-.9,6.73,6.73,0,0,0-5.82,6.59H14.93a2.8,2.8,0,0,1-3-3V19.07a2.78,2.78,0,0,1,2.24-2.78,2.53,2.53,0,0,1,.61-.06H45.57a2.78,2.78,0,0,1,2.85,2.87V35.84a2.83,2.83,0,0,1-.76,2ZM42.22,26.89H44.6c.5,0,.73-.23.73-.74,0-.86,0-1.71,0-2.57,0-.51-.24-.74-.73-.74H39.88c-.5,0-.73.23-.73.74,0,.86,0,1.71,0,2.57,0,.51.22.74.73.74Zm-25.3-6.05h1.66a.62.62,0,0,0,.69-.66c0-.43,0-.87,0-1.3a.62.62,0,0,0-.66-.66H15.26a.62.62,0,0,0-.65.66c0,.42,0,.85,0,1.27a.6.6,0,0,0,.68.68Zm12.87,10c.74,0,1.49,0,2.24,0a.74.74,0,0,0,.5-.21.6.6,0,0,0,.07-.51c-.07-.25-.32-.32-.57-.32H27.61c-.41,0-.66.2-.67.51s.24.54.67.54Zm6.48,0h2.24a.55.55,0,0,0,.6-.35c.13-.38-.14-.7-.61-.7H34.07c-.4,0-.65.22-.64.54s.23.51.65.51Zm-19.35,0h2.34a.51.51,0,0,0,.54-.5.54.54,0,0,0-.51-.53H14.73c-.41,0-.65.21-.65.53s.24.52.66.52Zm6.39,0h2.22c.41,0,.65-.2.65-.52s-.24-.53-.64-.53H21.11c-.4,0-.65.22-.64.54s.24.5.63.51Zm.81,2.46h1.49a.52.52,0,0,0,.57-.53.53.53,0,0,0-.57-.51h-3a.52.52,0,0,0-.56.54.51.51,0,0,0,.56.5Zm5.76-1H28.49c-.41,0-.66.21-.65.53s.24.51.63.51h2.86c.38,0,.61-.21.61-.52s-.24-.51-.63-.52Z"/><path class="cls-4" d="M42.22,26.89H39.88c-.51,0-.73-.23-.73-.74,0-.86,0-1.71,0-2.57,0-.51.23-.74.73-.74H44.6c.49,0,.73.23.73.74,0,.86,0,1.71,0,2.57,0,.51-.23.74-.73.74Z"/><path class="cls-4" d="M16.92,20.84H15.29a.6.6,0,0,1-.68-.68c0-.42,0-.85,0-1.27a.62.62,0,0,1,.65-.66h3.35a.62.62,0,0,1,.66.66c0,.43,0,.87,0,1.3a.62.62,0,0,1-.69.66Z"/><path class="cls-4" d="M29.79,30.81H27.61c-.43,0-.68-.21-.67-.54s.26-.51.67-.51H32c.25,0,.5.07.57.32a.6.6,0,0,1-.07.51.74.74,0,0,1-.5.21C31.28,30.82,30.53,30.81,29.79,30.81Z"/><path class="cls-4" d="M36.27,30.81H34.08c-.42,0-.65-.19-.65-.51s.24-.54.64-.54H38.5c.47,0,.74.32.61.7a.55.55,0,0,1-.6.35Z"/><path class="cls-4" d="M16.92,30.81H14.74c-.42,0-.65-.19-.66-.52s.24-.53.65-.53h4.56a.54.54,0,0,1,.51.53.51.51,0,0,1-.54.5Z"/><path class="cls-4" d="M23.31,30.81H21.1c-.39,0-.63-.2-.63-.51s.24-.54.64-.54h4.43c.4,0,.64.21.64.53s-.24.52-.65.52Z"/><path class="cls-4" d="M24.12,33.27H22.65a.51.51,0,0,1-.56-.5.52.52,0,0,1,.56-.54h3a.53.53,0,0,1,.57.51.52.52,0,0,1-.57.53Z"/><path class="cls-4" d="M29.88,32.23h1.43c.39,0,.62.2.63.52s-.23.52-.61.52H28.47c-.39,0-.62-.19-.63-.51s.24-.52.65-.53Z"/><path class="cls-2" d="M16.94,40.89a14.83,14.83,0,0,1-5.24-.83,5,5,0,0,1-1.62-.92,2.5,2.5,0,0,1-.31-.34,1.26,1.26,0,0,1,0-1.66A3.4,3.4,0,0,1,11,36.21a10.36,10.36,0,0,1,3.26-1,17.65,17.65,0,0,1,6.52.22,7.93,7.93,0,0,1,2.27.83A4.49,4.49,0,0,1,24,37a1.31,1.31,0,0,1,0,2,4.64,4.64,0,0,1-1.8,1.09,14.26,14.26,0,0,1-4.52.82Z"/><path class="cls-2" d="M24.42,39.91v.26c0,.47,0,.93,0,1.4a1.67,1.67,0,0,1-.64,1.4,5.84,5.84,0,0,1-2.12,1.08,16.41,16.41,0,0,1-5.62.64,14.22,14.22,0,0,1-4.29-.8A5.25,5.25,0,0,1,10.1,43a1.66,1.66,0,0,1-.64-1.4c0-.48,0-1,0-1.43v-.22h.06A2.68,2.68,0,0,0,11,41.37a9.75,9.75,0,0,0,3.26,1A17.64,17.64,0,0,0,21,42.08a7.8,7.8,0,0,0,2.21-.88,2.34,2.34,0,0,0,1.16-1.31Z"/><path class="cls-2" d="M9.49,43.43a3.1,3.1,0,0,0,1.87,1.7,11.19,11.19,0,0,0,3.26.84,17.68,17.68,0,0,0,6-.23,8.27,8.27,0,0,0,2.58-1,2.69,2.69,0,0,0,1.22-1.31,1.23,1.23,0,0,0,0,.2c0,.51,0,1,0,1.53a1.55,1.55,0,0,1-.5,1.2A5.11,5.11,0,0,1,22,47.52a14.08,14.08,0,0,1-3.91.73,17.54,17.54,0,0,1-4.9-.36,7.83,7.83,0,0,1-2.75-1.1,3.2,3.2,0,0,1-.61-.55,1.29,1.29,0,0,1-.36-.88V43.63C9.46,43.58,9.48,43.53,9.49,43.43Z"/><path class="cls-4" d="M39.61,39.52l1.57-1.58,1.72-1.72a.73.73,0,0,1,1.26.33.67.67,0,0,1-.19.65l-3.86,3.86a.69.69,0,0,1-1,0c-.52-.5-1-1-1.54-1.53a.71.71,0,0,1,0-1,.72.72,0,0,1,1,0C39,38.84,39.27,39.17,39.61,39.52Z"/></svg>