<svg id="Layer_2" data-name="Layer 2" xmlns="http://www.w3.org/2000/svg" viewBox="0 0 60 60"><defs><style>.cls-1{fill:#fffeff;}.cls-2{fill:#f06325;}.cls-3{fill:#fff;}.cls-4{fill:#1ba396;}</style></defs><circle class="cls-1" cx="29.84" cy="30.03" r="29.97"/><path class="cls-2" d="M48.67,26a3.53,3.53,0,0,1-.64-.64c-1.65-2-3.53-3.47-6.36-2.9-.12,0-.27-.08-.49-.16-.1-1.31-.14-2.6-2.09-2.57-5.63.07-11.26,0-16.88,0-1.35,0-1.94.58-1.91,1.93,0,.33,0,.67,0,1l6.38,5.69-6.4,7.34v1.74c1.49,0,3,0,4.45,0,.44,2.64,1.36,3.81,3.1,3.84a2.74,2.74,0,0,0,2-.56,21.28,21.28,0,0,0,2-3.22h9.91c.4,2.62,1.32,3.72,3.09,3.82s2.82-.92,3.58-3.89H50c2.09,0,2.15-.29,2.4-2.38C52.87,31.29,51.92,28.22,48.67,26Zm-19,12.14c-.09.69-.78,1.28-1.2,1.92l-.69,0c-.47-.64-1.31-1.3-1.3-1.93A2.33,2.33,0,0,1,28,36.57,1.37,1.37,0,0,1,29.7,38.16ZM45,39.79c-.67-.12-1.23-.84-1.85-1.3,0-.23,0-.46,0-.7.63-.43,1.3-1.26,1.87-1.19a2.38,2.38,0,0,1,1.61,1.55A1.37,1.37,0,0,1,45,39.79Zm-2-10.56c0-1.49,0-2.9,0-4.3a1,1,0,0,1,1.83-.48c1.52,1.53,2.9,3.21,4.31,4.78Z"/><circle class="cls-2" cx="28.11" cy="38.21" r="3.97"/><circle class="cls-3" cx="28.11" cy="38.21" r="1.87"/><circle class="cls-2" cx="44.87" cy="38.21" r="3.97"/><circle class="cls-3" cx="44.87" cy="38.21" r="1.87"/><path class="cls-2" d="M40.53,22.2h4.78l7.6,7.6v7.62H50.78l.35-2.3-.42-4-.45-1.89-.32-1-4.42-4.35a21.41,21.41,0,0,0-2-.81h-2.6Z"/><path class="cls-4" d="M7.09,35.94A24.93,24.93,0,0,1,8,32.05c1.49-3.86,4.52-5.81,8.51-6.44l.33-.05.19-.09L16.78,22l7.36,6.56L17.66,36l-.25-3.46c-3.05-.45-5.89-.1-8.32,1.93a25.69,25.69,0,0,0-2,2Z"/></svg>