<svg id="Layer_2" data-name="Layer 2" xmlns="http://www.w3.org/2000/svg" viewBox="0 0 60 60"><defs><style>.cls-1{fill:#fffeff;}.cls-2{fill:#f06325;}.cls-3{fill:#1ba396;}</style></defs><circle class="cls-1" cx="30.08" cy="30.03" r="29.97"/><path class="cls-2" d="M42.88,41.86H18.53c0-.12,0-.22,0-.32q0-14.28,0-28.55A3.18,3.18,0,0,1,21.7,9.8q9,0,18,0a3.18,3.18,0,0,1,3.2,3.2q0,14.28,0,28.55C42.89,41.65,42.88,41.74,42.88,41.86ZM30.7,40h8.21c.53,0,.77-.23.77-.75q0-3.73,0-7.47c0-.52-.25-.76-.77-.76H22.54c-.61,0-.82.23-.82.84v7.31c0,.61.22.83.84.83Zm0-18H38.9c.55,0,.78-.23.78-.78,0-1.6,0-3.21,0-4.81,0-.6-.22-.82-.8-.82H22.55c-.61,0-.83.22-.83.83v4.71c0,.66.21.87.86.87Zm3.21,7.7h5c.55,0,.78-.23.78-.78,0-1.61,0-3.23,0-4.84,0-.57-.23-.79-.8-.79H29c-.61,0-.83.21-.83.83v4.68c0,.72.18.9.92.9Zm-7-3.18V24.09c0-.6-.21-.82-.8-.82H22.52c-.57,0-.8.23-.8.8v4.81c0,.57.23.8.79.8h3.56c.55,0,.78-.23.78-.78Zm3.84-12.86h2.44c.49,0,.79-.25.78-.65s-.3-.63-.77-.63H28.26c-.46,0-.76.25-.76.64s.29.64.75.64ZM36.48,13a.67.67,0,0,0-.64-.64.65.65,0,0,0-.64.63.64.64,0,1,0,1.28,0Z"/><path class="cls-3" d="M18.51,43.17H42.84s0,0,0,.06c0,1.14.07,2.29,0,3.43a3.16,3.16,0,0,1-3.25,2.91H21.78a3.19,3.19,0,0,1-3.26-3.27c0-.93,0-1.86,0-2.79ZM30.7,44.44a1.93,1.93,0,0,0-1.92,1.92,1.93,1.93,0,1,0,3.85,0A1.93,1.93,0,0,0,30.7,44.44ZM24.3,47h1.22a.64.64,0,1,0,0-1.28H23.08a.64.64,0,1,0,0,1.28Zm12.83,0h1.22a.64.64,0,1,0,0-1.28H35.91a.64.64,0,1,0,0,1.28Z"/><path class="cls-2" d="M26.88,32.26h11.5v6.38H26.88Z"/><path class="cls-2" d="M25.55,38.66H23V32.27h2.52Z"/><path class="cls-2" d="M23,20.68v-3.8H38.38v3.8ZM33.9,19.42h2.43c.5,0,.79-.24.79-.64s-.3-.63-.77-.63c-1.63,0-3.25,0-4.88,0-.46,0-.76.24-.76.63s.29.64.75.64Z"/><path class="cls-2" d="M38.39,24.58v3.79H29.44V24.58Z"/><path class="cls-2" d="M25.56,24.58v3.79H23V24.58Z"/><path class="cls-3" d="M31.34,46.37a.63.63,0,0,1-.63.63.64.64,0,0,1-.65-.65.65.65,0,0,1,.64-.63A.63.63,0,0,1,31.34,46.37Z"/></svg>