<svg id="Layer_2" data-name="Layer 2" xmlns="http://www.w3.org/2000/svg" viewBox="0 0 60 60"><defs><style>.cls-1{fill:#fffeff;}.cls-2{fill:#1ba396;}.cls-3{fill:#f06325;}.cls-4{fill:#fff;}</style></defs><circle class="cls-1" cx="30" cy="30.03" r="29.97"/><path class="cls-2" d="M30.09,18.8v3l-.73,0H21.23c-.23,0-.45,0-.68,0-1.17.1-1.65.2-1.64,1.66,0,5.6,0,11.21,0,16.81a2.22,2.22,0,0,0,2.47,2.49c5.75,0,11.5,0,17.24,0a2.39,2.39,0,0,0,2.53-2.54c-.09-1.37,0-2.76,0-4.17h3v.66c0,2.09,0,4.18,0,6.27a2.64,2.64,0,0,1-1.52,2.71H17.44L16,44.23V20.41l1.61-1.61Z"/><path class="cls-3" d="M46.35,27.85a3.56,3.56,0,0,0-.5.32l-8.76,8.14-.27.19V30.66c-6-.46-11.06,1.2-15.19,5.79a13.19,13.19,0,0,1,5.18-8.94c2.94-2.16,6.36-2.8,10-2.8V18.8h.13a1,1,0,0,0,.16.24l8.85,8.24a1.81,1.81,0,0,0,.42.2Z"/><path class="cls-4" d="M17.56,18.8,16,20.41"/></svg>