<svg id="Layer_1" data-name="Layer 1" xmlns="http://www.w3.org/2000/svg" viewBox="0 0 60 60"><defs><style>.cls-1{fill:#f16223;}.cls-2{fill:#fff;}.cls-3{fill:#1ea396;}</style></defs><path class="cls-1" d="M54.45,28.45a4,4,0,0,1-.85-.84C51.45,25,49,23.07,45.28,23.82c-.16,0-.36-.11-.65-.21-.12-1.71-.18-3.4-2.73-3.37-7.37.1-14.74.05-22.1,0-1.77,0-2.54.76-2.5,2.53,0,.43,0,.87,0,1.31l8.36,7.44L17.3,41.16v2.28c1.95,0,3.9,0,5.83,0,.58,3.46,1.78,5,4.06,5a3.65,3.65,0,0,0,2.56-.73A27.83,27.83,0,0,0,32.4,43.5h13c.52,3.44,1.73,4.88,4.05,5s3.68-1.2,4.68-5.09h2.11c2.73,0,2.82-.39,3.15-3.11C60,35.35,58.69,31.33,54.45,28.45ZM29.6,44.35c-.11.89-1,1.68-1.57,2.51l-.89,0c-.62-.84-1.73-1.7-1.71-2.52a3,3,0,0,1,2-2.11A1.78,1.78,0,0,1,29.6,44.35Zm20,2.13c-.88-.16-1.61-1.1-2.41-1.7,0-.3,0-.61,0-.91.83-.57,1.72-1.66,2.46-1.57a3.15,3.15,0,0,1,2.11,2A1.8,1.8,0,0,1,49.57,46.48ZM46.9,32.66c0-1.95-.06-3.8,0-5.63a1.34,1.34,0,0,1,2.39-.63c2,2,3.8,4.19,5.65,6.26Z"/><circle class="cls-1" cx="27.53" cy="44.41" r="5.2"/><circle class="cls-2" cx="27.53" cy="44.41" r="2.45"/><circle class="cls-1" cx="49.47" cy="44.41" r="5.2"/><circle class="cls-2" cx="49.47" cy="44.41" r="2.45"/><path class="cls-1" d="M43.79,23.45h6.26l10,10v10H57.2l.46-3-.55-5.23-.59-2.48-.42-1.28-5.78-5.69s-2.4-1.05-2.65-1.05H44.26Z"/><path class="cls-3" d="M0,41.44a32.94,32.94,0,0,1,1.13-5.09c2-5.06,5.92-7.61,11.14-8.44.14,0,.29,0,.43-.06a1.23,1.23,0,0,0,.25-.12l-.26-4.55,9.63,8.58-8.47,9.72L13.51,37c-4-.59-7.7-.14-10.89,2.52-1,.8-1.75,1.78-2.62,2.67Z"/></svg>