<svg id="Layer_1" data-name="Layer 1" xmlns="http://www.w3.org/2000/svg" viewBox="0 0 60 60"><defs><style>.cls-1{fill:#ef6324;}.cls-2{fill:#18a295;}</style></defs><path class="cls-1" d="M45.2,11l-4.82,2.91c1.36.82,2.49,1.49,3.59,2.19,1.9,1.2,1.8,2.54.34,4.07a6.17,6.17,0,0,1-8.26.77c-4.06-2.85-7-1.06-10.23,1-.35.22-.72.41-1.08.61L3,35c4,7.06,8,14,12,21L57.05,31.88Zm-7.49,28.8-2.52,1.38a.64.64,0,0,0-.18-.1l-8.59-3.2a1.46,1.46,0,0,1-.6-.39,11.09,11.09,0,0,1-.67-1.22.45.45,0,0,1,.22-.68c.47-.25.94-.49,1.4-.77a4.79,4.79,0,0,0,2.09-2.11,2,2,0,0,0,.1-1.48l-.26.12-4.28,2.33c-.41.22-.58.18-.8-.22-.14-.24-.26-.48-.39-.72-.28-.51-.25-.63.25-.9l3.67-2,.66-.36a1.45,1.45,0,0,0-.21-.16,2.89,2.89,0,0,0-2.52.09c-.79.35-1.54.78-2.3,1.17-.46.23-.62.19-.86-.24a11.81,11.81,0,0,1-.56-1.05,3.1,3.1,0,0,1-.12-.7l9.52-5.18c.63.32.78,1,1,1.56,0,.1-.2.36-.36.46-.76.44-1.53.85-2.29,1.26.47.4.93.8,1.4,1.17.06.06.25,0,.36-.06.51-.26,1-.53,1.51-.81a.45.45,0,0,1,.71.21c.15.3.32.6.48.91a.44.44,0,0,1-.2.7l-1.74.94c.83,2.7-.29,4.65-2.39,6.26,1.06.38,2.08.74,3.08,1.13,1.67.64,3.33,1.32,5,2C37.7,39.22,37.82,39.42,37.71,39.78Z"/><path class="cls-2" d="M39.24,21.18a62.4,62.4,0,0,1-6-2.51c-1.55-.82-2.7-1-4.31,0-4.28,2.72-8.68,5.25-13.08,7.77C12.84,28.2,5.6,25.29,4.66,22a2,2,0,0,1,.43-1.55c3-3.67,6.06-7.29,9.09-10.92a2.38,2.38,0,0,1,3.88-.24c2.9,3,6.24,3.13,10,2.08,4.43-1.24,8.33-.47,11.54,3.14.85.95,2.28,1.35,3.37,2.11.63.44,1.64,1.19,1.56,1.62a3.31,3.31,0,0,1-1.61,1.93A18.23,18.23,0,0,1,39.24,21.18Z"/></svg>