<svg id="Layer_1" data-name="Layer 1" xmlns="http://www.w3.org/2000/svg" viewBox="0 0 60 60"><defs><style>.cls-1{fill:#18a295;}.cls-2{fill:#fff;}.cls-3{fill:#f16223;}</style></defs><path class="cls-1" d="M47.27,11.39c0-3.35-.61-6-3.88-7.45H17.12c-.31.2-.61.42-.93.6a4.88,4.88,0,0,0-2.84,4.55q0,21,0,42.09c0,2.72,1.59,4.2,3.79,5.29h26c3.18-1.17,4.2-3.45,4.17-6.8Q47.06,30.53,47.27,11.39ZM25.92,6.14a.75.75,0,0,1,.52-.22h7.08a.75.75,0,0,1,.74.75.73.73,0,0,1-.22.52.74.74,0,0,1-.52.21H26.44a.74.74,0,0,1-.74-.73A.76.76,0,0,1,25.92,6.14Zm8.34,46.33a1.6,1.6,0,0,1-1.59,1.59H27.29a1.59,1.59,0,0,1-1.59-1.59,1.59,1.59,0,0,1,1.59-1.58h5.38a1.58,1.58,0,0,1,1.58,1.46h0A.45.45,0,0,1,34.26,52.47Zm9.67-6.94c0,2.26-1,3.22-3.18,3.22H20.05c-2.81,0-3.55-.75-3.55-3.53,0-5.49,0-11,0-16.48h.08c0-5.64,0-11.28,0-16.92,0-2.49,1-3.44,3.43-3.44h20.7c2.29,0,3.21.89,3.21,3.16Q43.95,28.55,43.93,45.53Z"/><path class="cls-2" d="M34.26,52.36h0s0,0,0,0Z"/><path class="cls-3" d="M26.79,17.52h6.3v14.7h5.8L30.19,43,21.61,32.3h5.18Z"/></svg>