<svg id="Layer_1" data-name="Layer 1" xmlns="http://www.w3.org/2000/svg" viewBox="0 0 60 60"><defs><style>.cls-1{fill:#f16223;}.cls-2{fill:#1ea396;}</style></defs><path class="cls-1" d="M41,50.08H28.55V42.4H41Zm-12.3-.15H40.85V42.55H28.7Z"/><path class="cls-2" d="M45.66,35c0-9,0-18,0-27A4.06,4.06,0,0,0,41.52,3.9c-7.55.09-15.1,0-22.65,0A3.81,3.81,0,0,0,14.82,8c0,1,0,1.93,0,2.9,0,.63-.19,1.27-.19,1.9,0,.87.19,1.75.18,2.61,0,1.21-.17,2.42-.23,3.62,0,.75,0,1.5,0,2.24.07,1.42.24,2.84.24,4.25,0,12.12,0,15.63,0,27.75a3.85,3.85,0,0,0,4.12,4.17c7.48,0,15-.08,22.42,0a4.14,4.14,0,0,0,4.33-4.34C45.63,44.23,45.66,43.94,45.66,35ZM27.26,6.28h.17a.51.51,0,0,1,.33-.13h4.71a.51.51,0,0,1,0,1H27.76a.51.51,0,0,1-.51-.51.52.52,0,0,1,.09-.28A.39.39,0,0,0,27.26,6.28Zm16,43.5h-26V11h26Z"/><rect class="cls-1" x="19.26" y="13.52" width="9.37" height="7.53"/><rect class="cls-1" x="19.26" y="23.17" width="9.37" height="7.53"/><rect class="cls-1" x="19.26" y="32.82" width="9.37" height="7.53"/><rect class="cls-1" x="19.26" y="42.48" width="9.37" height="7.53"/><path class="cls-1" d="M41,21.12H28.55V13.44H41ZM28.7,21H40.85V13.59H28.7Z"/><path class="cls-1" d="M41,30.77H28.55V23.1H41Zm-12.3-.14H40.85V23.24H28.7Z"/><path class="cls-1" d="M41,40.43H28.55V32.75H41Zm-12.3-.15H40.85V32.9H28.7Z"/></svg>