<svg id="Layer_1" data-name="Layer 1" xmlns="http://www.w3.org/2000/svg" viewBox="0 0 60 60"><defs><style>.cls-1{fill:#f16223;}.cls-2{fill:#1ea396;}</style></defs><path class="cls-1" d="M3.87,34.22C4.35,32.91,5.6,33,6.69,32.61l1.69,6.3c-.7.17-1.34.38-2,.48a1.49,1.49,0,0,1-1.57-1.25c-.28-1-.54-2-.82-3a1.59,1.59,0,0,0-.12-.27Z"/><path class="cls-2" d="M23.1,35.27c.45-.07.85-.15,1.25-.19a58.17,58.17,0,0,1,8.24-.3c1.33,0,2.67.23,4,.37a.92.92,0,0,0,1.08-.76.88.88,0,0,0-.84-.92c-2.25-.14-4.5-.39-6.75-.38s-4.57.29-6.85.47c-.43,0-.64-.07-.75-.51Q21.57,29.5,20.59,26c-.11-.4,0-.56.36-.72a38.27,38.27,0,0,0,8.4-4.65c1.66-1.27,3.18-2.71,4.76-4.08.16-.14.3-.32.46-.47.56-.55,1.11-.41,1.32.35q.81,3,1.61,5.94c.22.81.21.77,1,.71a4,4,0,0,1,4.26,3.25,4,4,0,0,1-2.54,4.52c-.4.13-.42.31-.32.68.6,2.19,1.18,4.39,1.76,6.58a1.79,1.79,0,0,1,.09.4c.07.7-.29,1-1,.84-1.39-.33-2.76-.71-4.16-1a32,32,0,0,0-8.51-.51c-1.23.1-2.47.2-3.7.32-.43,0-.65-.08-.74-.53C23.54,36.86,23.32,36.1,23.1,35.27Zm15.21-9.89.94,3.49a1.82,1.82,0,0,0,1.43-1.54A1.72,1.72,0,0,0,40,25.6,1.51,1.51,0,0,0,38.31,25.38Z"/><path class="cls-1" d="M11,40.53c-.55-2.08-1.1-4.11-1.64-6.14-.37-1.36-.73-2.72-1.1-4.08-.08-.27,0-.43.26-.53l9.88-3.51a1.26,1.26,0,0,1,.22,0l2.06,7.7c-.89.16-1.74.3-2.58.47l-4.44.91c-.61.13-.88.48-.77,1s.51.69,1.12.57l6.4-1.24c.21,0,.43-.06.7-.1l.8,3Z"/><path class="cls-1" d="M14.94,42.18l7.33-1.33a4.48,4.48,0,0,1,.22.52l3.27,9.42c.28.83.17,1.07-.66,1.39l-3.66,1.39c-.7.26-1.05.07-1.23-.67-.48-2-.94-3.92-1.44-5.88a1.09,1.09,0,0,0-.47-.65,5.1,5.1,0,0,1-3.1-3.56A5.34,5.34,0,0,0,14.94,42.18Z"/><path class="cls-2" d="M54,41.13l-2.46-.65-4.07-1.1c-.57-.15-.82-.49-.7-.92s.5-.58,1-.44l6.47,1.73a.7.7,0,0,1,.59.82C54.83,41,54.56,41.15,54,41.13Z"/><path class="cls-2" d="M47.5,25.73a.63.63,0,0,1-.72-.56.69.69,0,0,1,.6-.81l3.82-1c.92-.24,1.83-.47,2.75-.73a.7.7,0,1,1,.42,1.33c-2.2.61-4.41,1.19-6.62,1.78A1,1,0,0,1,47.5,25.73Z"/><path class="cls-2" d="M51.59,15.4a1.9,1.9,0,0,1-.44.48q-2.92,1.72-5.86,3.4a.72.72,0,0,1-1.06-.23c-.21-.37-.11-.71.35-1q2.93-1.71,5.86-3.39A.73.73,0,0,1,51.59,15.4Z"/><path class="cls-2" d="M40.65,14.08c-.23-.18-.48-.29-.58-.48a1.07,1.07,0,0,1,0-.66c0-.12.16-.21.26-.31C41.88,11.09,43.41,9.54,45,8a1.11,1.11,0,0,1,.82-.32c.56.1.68.76.25,1.2-.85.88-1.72,1.73-2.59,2.6-.71.71-1.41,1.43-2.13,2.12A4.53,4.53,0,0,1,40.65,14.08Z"/><path class="cls-2" d="M51.84,31.18H55.2c.52,0,.85.27.86.67s-.35.7-.88.7H48.56c-.59,0-.87-.22-.88-.67s.26-.7.9-.7h3.26Z"/></svg>