<svg id="Layer_1" data-name="Layer 1" xmlns="http://www.w3.org/2000/svg" viewBox="0 0 60 60"><defs><style>.cls-1{fill:#f6966b;}.cls-2{fill:#fff;}</style></defs><circle class="cls-1" cx="30" cy="30" r="24.49"/><path class="cls-1" d="M30,59.9A29.9,29.9,0,1,1,59.9,30,29.93,29.93,0,0,1,30,59.9ZM30,1.1A28.9,28.9,0,1,0,58.9,30,28.93,28.93,0,0,0,30,1.1Z"/><path class="cls-2" d="M44,38.58a3.4,3.4,0,0,1-.07.34,3.76,3.76,0,0,1-.54,1.23,10.2,10.2,0,0,1-3.31,3.16,4.62,4.62,0,0,1-3.92.45,21.42,21.42,0,0,1-3.85-1.64,35.74,35.74,0,0,1-8.25-6,35.09,35.09,0,0,1-5-6.42,25.5,25.5,0,0,1-2.4-4.75,14.32,14.32,0,0,1-.5-1.73,3.93,3.93,0,0,1,.27-2.29A7.67,7.67,0,0,1,18.43,18,20.43,20.43,0,0,1,20,16.7,3.9,3.9,0,0,1,21.49,16a1.53,1.53,0,0,1,1,.13,5.3,5.3,0,0,1,1.83,1.49,17.52,17.52,0,0,1,2.17,3.4c.24.49.46,1,.66,1.51a1.12,1.12,0,0,1-.28,1.28,3.86,3.86,0,0,1-.44.38,11.16,11.16,0,0,1-2.32,1.22c-.11,0-.22.11-.33.16a1.71,1.71,0,0,0-1,1.83,2.69,2.69,0,0,0,.26.77A13.23,13.23,0,0,0,25,31.08,25.21,25.21,0,0,0,31.91,37,1.72,1.72,0,0,0,34,36.74a2.63,2.63,0,0,0,.6-.77c.38-.75.77-1.5,1.16-2.24a3.9,3.9,0,0,1,.41-.59,1.36,1.36,0,0,1,1.68-.35,17.54,17.54,0,0,1,2.67,1.75,21.28,21.28,0,0,1,2.73,2.37c.14.16.27.32.4.49a1.6,1.6,0,0,1,.32.7Z"/></svg>