<svg id="Layer_1" data-name="Layer 1" xmlns="http://www.w3.org/2000/svg" viewBox="0 0 18.04 18.04"><path d="M6.63.62H7.3l.58.05a6.25,6.25,0,0,1,5.58,7.1,6.42,6.42,0,0,1-1,2.72.24.24,0,0,0,0,.07l.07,0L14,12.17l2.54,2.55.4.38a1.79,1.79,0,0,1,.39.59c0,.1,0,.2.08.3v.29s0,0,0,0a1.28,1.28,0,0,1-.65.91A1.25,1.25,0,0,1,15.2,17c-1.49-1.5-3-3-4.5-4.49a.14.14,0,0,0-.17-.05c-.18.06-.37.11-.55.19a7.35,7.35,0,0,1-1.56.65,6.31,6.31,0,0,1-5.25-1.05,5.74,5.74,0,0,1-2-2.54,7.62,7.62,0,0,1-.52-3.2,7,7,0,0,1,.63-2.63,5.15,5.15,0,0,1,1.56-2A6.64,6.64,0,0,1,6.07.67ZM7,2.38a4.56,4.56,0,0,0-.23,9.12A4.56,4.56,0,1,0,7,2.38Z"/></svg>