<svg id="Layer_1" data-name="Layer 1" xmlns="http://www.w3.org/2000/svg" viewBox="0 0 672.36 549"><defs><style>.cls-1{fill:#1ea396;}.cls-2{fill:#f16223;}.cls-3{fill:#fff;}</style></defs><ellipse class="cls-1" cx="504.37" cy="379.48" rx="84.75" ry="82.04"/><path class="cls-2" d="M606.59,370.82c-4.76-33.51-20.71-59.34-49.16-76.8-20.16-12.37-42.19-16.64-65.71-13.88-40.53,4.75-87.07,39.5-89.32,101.2h-5.27q-144.75,0-289.48,0c-28,0-45.94-18-45.94-46q0-128,0-256c0-21.23,13.85-38.41,34.32-42.75a45.77,45.77,0,0,1,9.43-.84q236.24-.06,472.47,0c25.21,0,43.76,18.75,43.76,44.06q0,128.51,0,257c0,11.91-3.63,22.22-11.71,30.95C609.18,368.69,608.13,369.46,606.59,370.82Zm-80-171.41c12.15,0,24.29,0,36.44,0,7.71,0,11.27-3.55,11.31-11.35q.13-19.72,0-39.44c-.05-7.77-3.65-11.37-11.32-11.39q-36.19-.08-72.4,0c-7.65,0-11.17,3.62-11.21,11.41q-.09,19.72,0,39.45c0,7.81,3.48,11.27,11.25,11.32C502.61,199.45,514.59,199.4,526.58,199.41ZM138.17,106.47v0c8.49,0,17,.09,25.48,0,6.71-.09,10.38-3.51,10.58-10s.21-13.33,0-20c-.18-6.2-3.92-10-10.09-10.09q-25.72-.21-51.47,0c-6.14,0-9.92,3.94-10,10.06-.15,6.5-.13,13,0,19.49.12,6.87,3.66,10.42,10.56,10.52C121.51,106.56,129.84,106.47,138.17,106.47ZM335.69,259.56c11.47,0,22.95.2,34.41-.14,2.69-.08,6.12-1.29,7.75-3.22,1.46-1.72,1.74-5.39,1-7.76-1.17-4-4.87-5-8.85-5-22.61,0-45.22,0-67.83,0-6.22,0-10,3.05-10.2,7.87-.17,5.06,3.71,8.2,10.26,8.21C313.41,259.59,324.55,259.57,335.69,259.56Zm99.45,0v0c11.5,0,23,0,34.5,0,4.18,0,7.59-1.15,9.1-5.46,2-5.81-2.09-10.64-9.35-10.65q-34-.09-68,0c-6.13,0-9.9,3.26-9.83,8.18s3.63,7.83,10.08,7.86C412.81,259.6,424,259.56,435.14,259.56Zm-297,0v0c12,0,24,.11,36,0,4.9-.07,8.1-3.37,8.2-7.73s-3.13-7.64-7.83-8.2a20.65,20.65,0,0,0-2.49-.09q-33.75,0-67.49,0c-6.2,0-9.94,3.17-9.9,8.11s3.65,7.91,10,7.94C115.79,259.59,127,259.56,138.12,259.56Zm98.15,0c11.33,0,22.66,0,34,0,6.31,0,10.11-3,10.1-7.88s-3.71-8.13-10-8.14q-34-.09-68,0c-6.13,0-9.93,3.34-9.81,8.24s3.68,7.76,9.66,7.79C213.61,259.58,224.94,259.54,236.27,259.54Zm12.39,37.84v0c7.65,0,15.31.09,23,0,5.35-.09,8.89-3.55,8.74-8.19-.14-4.38-3.66-7.71-8.76-7.75q-22.73-.17-45.44,0c-5.36.05-8.81,3.6-8.65,8.28s3.45,7.57,8.68,7.64C233.68,297.46,241.17,297.38,248.66,297.38Zm88.5-16v0c-7.15,0-14.31,0-21.47,0-6.18.05-10,3.24-9.88,8.13s3.64,7.83,9.59,7.85q22,.08,43.93,0c5.84,0,9.45-3.24,9.35-8s-3.67-7.9-9.55-8C351.81,281.31,344.48,281.37,337.16,281.37Z"/><path class="cls-3" d="M526.58,199.4c-12,0-24,0-36,0-7.77,0-11.22-3.51-11.25-11.32q-.09-19.73,0-39.45c0-7.79,3.56-11.39,11.21-11.41q36.21-.06,72.4,0c7.67,0,11.27,3.62,11.32,11.39q.13,19.71,0,39.44c0,7.8-3.6,11.32-11.31,11.35C550.87,199.45,538.73,199.41,526.58,199.4Z"/><path class="cls-3" d="M138.17,106.47c-8.33,0-16.66.09-25,0-6.9-.1-10.44-3.65-10.56-10.52-.11-6.49-.13-13,0-19.49.13-6.12,3.91-10,10-10.06q25.74-.2,51.47,0c6.17,0,9.91,3.89,10.09,10.09q.28,10,0,20c-.2,6.53-3.87,10-10.58,10-8.49.11-17,0-25.48,0Z"/><path class="cls-3" d="M335.69,259.57c-11.14,0-22.28,0-33.42,0-6.55,0-10.43-3.15-10.26-8.21.16-4.82,4-7.86,10.2-7.87,22.61,0,45.22,0,67.83,0,4,0,7.68,1,8.85,5,.7,2.37.42,6-1,7.76-1.63,1.93-5.06,3.14-7.75,3.22C358.64,259.76,347.16,259.56,335.69,259.57Z"/><path class="cls-3" d="M435.14,259.56c-11.16,0-22.33,0-33.5,0-6.45,0-10-2.87-10.08-7.86s3.7-8.16,9.83-8.18q34-.09,68,0c7.26,0,11.39,4.84,9.35,10.65-1.51,4.31-4.92,5.48-9.1,5.46-11.5,0-23,0-34.5,0Z"/><path class="cls-3" d="M138.12,259.56c-11.16,0-22.33,0-33.5,0-6.37,0-10-2.94-10-7.94s3.7-8.09,9.9-8.11q33.73-.06,67.49,0a20.65,20.65,0,0,1,2.49.09c4.7.56,7.92,3.95,7.83,8.2s-3.3,7.66-8.2,7.73c-12,.16-24,0-36,0Z"/><path class="cls-3" d="M236.27,259.54c-11.33,0-22.66,0-34,0-6,0-9.54-3-9.66-7.79s3.68-8.22,9.81-8.24q34-.08,68,0c6.25,0,10,3.18,10,8.14s-3.79,7.85-10.1,7.88C258.93,259.58,247.6,259.54,236.27,259.54Z"/><path class="cls-3" d="M248.66,297.38c-7.49,0-15,.08-22.47,0-5.23-.07-8.53-3.1-8.68-7.64s3.29-8.23,8.65-8.28q22.72-.18,45.44,0c5.1,0,8.62,3.37,8.76,7.75.15,4.64-3.39,8.1-8.74,8.19-7.65.12-15.31,0-23,0Z"/><path class="cls-3" d="M337.16,281.37c7.32,0,14.65-.06,22,0,5.88.07,9.44,3.12,9.55,8s-3.51,8-9.35,8q-22,.08-43.93,0c-5.95,0-9.48-3-9.59-7.85s3.7-8.08,9.88-8.13c7.16,0,14.32,0,21.47,0Z"/><path class="cls-1" d="M138.43,414.25c-27.48,0-54.52-3-80.46-12.69-9-3.38-17.61-7.65-24.86-14.16a36.18,36.18,0,0,1-4.72-5.1c-6.34-8.36-6.24-17.32.23-25.58,5-6.37,11.62-10.65,18.74-14.23,15.82-7.95,32.78-12.12,50.17-14.63,33.51-4.83,66.88-4.05,100,3.43,12.17,2.75,24.09,6.44,34.9,12.79a68.61,68.61,0,0,1,14,10.63c9.2,9.32,9,20.54,0,30.11-7.63,8.13-17.36,12.92-27.59,16.79-22.34,8.45-45.66,11.68-69.38,12.62C145.81,414.37,142.12,414.25,138.43,414.25Z"/><path class="cls-1" d="M253.23,399.25v4c0,7.17-.31,14.36.07,21.51.48,9.05-3.34,15.88-9.91,21.53-9.46,8.15-20.7,12.91-32.43,16.57-28.13,8.76-57,11-86.28,9.74-22.54-1-44.67-4.37-65.94-12.25-9.13-3.38-17.82-7.64-25.26-14.09-6.57-5.69-10.32-12.53-9.87-21.56.35-7.26.07-14.55.07-21.82v-3.45c.6.08.9.06.92.13,3.83,11,12.64,17.1,22.3,22.15,15.7,8.21,32.67,12.41,50.05,14.94,34.78,5.06,69.38,4.25,103.62-4.13,11.92-2.92,23.45-6.95,34-13.39,8-4.86,14.92-10.69,17.81-20.12Z"/><path class="cls-1" d="M24.16,453.33C29.34,467.6,40.75,474,52.8,479.38c15.89,7.19,32.78,10.81,50,13,30.8,3.85,61.45,3,91.84-3.54,13.85-3,27.31-7.21,39.57-14.58,8.08-4.87,15.16-10.71,18.77-20.17.08,1.05.24,2.11.24,3.16,0,7.8-.18,15.61.07,23.41.24,7.38-2.54,13.34-7.61,18.4-8.35,8.31-18.77,13.12-29.65,17-19.42,7-39.6,10.07-60.08,11.28-25.27,1.5-50.38,0-75.13-5.59-15-3.4-29.55-8-42.33-16.82a57.92,57.92,0,0,1-9.38-8.4A19.68,19.68,0,0,1,23.7,483c0-8.85,0-17.71,0-26.57A25.3,25.3,0,0,1,24.16,453.33Z"/><path class="cls-3" d="M486.51,393.26C494.74,385,502.63,377,510.56,369c8.77-8.82,17.53-17.66,26.39-26.38,6.86-6.77,17.12-4,19.36,5.06a10.22,10.22,0,0,1-3,10.07q-29.52,29.64-59.17,59.16a10.66,10.66,0,0,1-15.25.08q-12-11.58-23.6-23.61a10.83,10.83,0,0,1,.41-15.82c4.41-4.13,11-4.09,15.57.37C476.36,382.81,481.22,387.9,486.51,393.26Z"/></svg>