<svg id="Layer_1" data-name="Layer 1" xmlns="http://www.w3.org/2000/svg" viewBox="0 0 60 60"><defs><style>.cls-1{fill:#1ea396;}.cls-2{fill:#f16223;}</style></defs><path class="cls-1" d="M47.4,21.64V16.58a2,2,0,0,0,0-.45c-.1-.45-.39-.59-1-.59h-.52c-4.71,0-9.4,0-14.1,0a1.43,1.43,0,0,0-.91.31Q21.93,24.7,13.08,33.57l-5.62,5.6a.49.49,0,0,0,0,.73,7.28,7.28,0,0,1,.58.54L14.63,47c1.57,1.57,3.15,3.14,4.73,4.73l3.05,3c.93.92,1.08.93,2,0l0,0Q35.7,43.51,47,32.25a1.4,1.4,0,0,0,.43-1.05C47.4,28,47.4,24.83,47.4,21.64ZM32.46,38.58a5.17,5.17,0,0,1-3.18-3.88,3.33,3.33,0,0,1,2.24-3.56s0,0,0,0a2.16,2.16,0,0,1,.61-.14,3.27,3.27,0,0,1,2,.36,5.48,5.48,0,0,1,2.87,3.44,3.65,3.65,0,0,1,.09.74,3.86,3.86,0,0,1-.1.77s0,.05,0,.08a3.61,3.61,0,0,1-.62,1.24A3.27,3.27,0,0,1,32.46,38.58Zm-9,1.19a4.28,4.28,0,0,1-1.64.31A3.84,3.84,0,0,1,19.54,39c-.22-.2-.45-.43-.67-.67a4.25,4.25,0,0,1-1.22-2.62,3.31,3.31,0,0,1,2.06-3.22,3.24,3.24,0,0,1,2.07-.2,4.35,4.35,0,0,1,1.44.67,5.76,5.76,0,0,1,1.13,1,4.75,4.75,0,0,1,1.18,2.4,3,3,0,0,1-.06,1.12A3.31,3.31,0,0,1,23.42,39.77Zm7.49,3.28c-.27.28-.52.57-.8.84a4.69,4.69,0,0,1-.53.47c-.28.21-.55-.07-.66-.41l-.33-1c-.19-.62-.39-1.24-.58-1.86-.09-.27-.18-.54-.26-.81-1-3.25-2.05-6.49-3.09-9.72-.21-.67-.43-1.34-.64-2a.84.84,0,0,1,.25-1,5.32,5.32,0,0,0,.48-.47l.18-.18c.45-.43.81-.34,1,.25.09.29.19.58.28.87l1.46,4.58c.22.69.44,1.38.65,2.07.28.87.56,1.75.83,2.62a0,0,0,0,0,0,0c.55,1.74,1.11,3.48,1.66,5.22.05.14.08.28.12.41S30.94,43,30.91,43.05Zm8.49-21.7a2.45,2.45,0,0,1,.12-.78,2.24,2.24,0,0,1,4.14-.18,2.22,2.22,0,0,1,.19.89,2.28,2.28,0,0,1-.23,1,2.19,2.19,0,0,1-2,1.23,2.39,2.39,0,0,1-.66-.09h0A2.2,2.2,0,0,1,39.4,21.35Z"/><path class="cls-1" d="M34.06,36.56a3.77,3.77,0,0,1-2.49-2.47.79.79,0,0,1,1.16-.75,4.25,4.25,0,0,1,2.06,2.08A.78.78,0,0,1,34.06,36.56Z"/><path class="cls-1" d="M23.06,37.53a.85.85,0,0,1-1.1.1,4.78,4.78,0,0,1-1.88-1.93.82.82,0,0,1,.78-1.24,2.49,2.49,0,0,1,.51.2,5,5,0,0,1,1.74,1.77A.85.85,0,0,1,23.06,37.53Z"/><path class="cls-2" d="M51,30.76c-.77-3.1-1.52-6.19-2.27-9.28l-.38-1.54v.9c0,3.52,0,7,0,10.52a1.55,1.55,0,0,1-.47,1.17Q36.5,43.87,25.13,55.26q3.59,2.16,7.15,4.34c1.12.69,1.26.66,1.95-.48q8.28-13.63,16.58-27.23A1.42,1.42,0,0,0,51,30.76Z"/></svg>