<svg id="Layer_1" data-name="Layer 1" xmlns="http://www.w3.org/2000/svg" viewBox="0 0 60 60"><defs><style>.cls-1{fill:#1ea396;}.cls-2{fill:#f16223;}</style></defs><path class="cls-1" d="M43.94,34.47c0-7.41,0-14.81,0-22.22a3.35,3.35,0,0,0-3.43-3.44c-6.22.07-12.44,0-18.66,0a3.14,3.14,0,0,0-3.34,3.35c0,.8,0,1.6,0,2.39,0,.53-.16,1.05-.16,1.57,0,.72.16,1.44.15,2.15,0,1-.14,2-.19,3,0,.61,0,1.23,0,1.84.05,1.17.2,2.34.2,3.5q0,15,0,30A3.19,3.19,0,0,0,21.92,60c6.15,0,12.31-.06,18.47,0A3.4,3.4,0,0,0,44,56.49C43.91,49.15,43.94,41.81,43.94,34.47ZM28.77,10.77h.14a.43.43,0,0,1,.27-.1h3.88a.41.41,0,0,1,.42.42.38.38,0,0,1-.12.29.42.42,0,0,1-.3.13H29.18a.42.42,0,0,1-.42-.42.48.48,0,0,1,.07-.24ZM42,53.73H20.51V14.64H42Z"/><path class="cls-2" d="M37.67,37.35a.72.72,0,0,1-.16.3l-.57.62L33,42.22c-.34.35-.69.69-1,1a2.79,2.79,0,0,1-.43.34.63.63,0,0,1-.78,0,5.17,5.17,0,0,1-.51-.42c-.19-.17-.38-.36-.56-.55l-4.56-4.55a4.19,4.19,0,0,1-.39-.45.88.88,0,0,1-.14-.23.17.17,0,0,1,.11-.25,1.08,1.08,0,0,1,.31-.07,3.39,3.39,0,0,1,.45,0h2.22V37c0-1.45,0-8.9,0-10.34h6.89V37H37a1.78,1.78,0,0,1,.51.06l.1,0A.19.19,0,0,1,37.67,37.35Z"/></svg>