<svg id="Layer_1" data-name="Layer 1" xmlns="http://www.w3.org/2000/svg" viewBox="0 0 60 60"><defs><style>.cls-1{fill:#1ea396;}.cls-2{fill:#f16223;}</style></defs><path class="cls-1" d="M45.9,41.1a14.08,14.08,0,0,0,1-4.15,16.71,16.71,0,0,0-.25-4.78,17,17,0,0,0-1.07-3.49,16.63,16.63,0,0,0-5.31-6.79,16,16,0,0,0-6.56-3c-.91-.19-1.84-.28-2.77-.41H29.52a15.29,15.29,0,0,0-3.68.54A24,24,0,0,0,23,20a15.22,15.22,0,0,0-3.61,2.21,17,17,0,0,0-3.66,4.08,16.47,16.47,0,0,0-2.31,5.81,18.77,18.77,0,0,0-.29,2.11,1.79,1.79,0,0,0,0,.33h0v.66c0,.19,0,.41,0,.62a13.24,13.24,0,0,0,.45,3.43,20.83,20.83,0,0,0,.8,2.58A16.92,16.92,0,0,0,26,51.82a18.89,18.89,0,0,0,3.6.48c.52,0,1.06-.06,1.58-.07a15.53,15.53,0,0,0,3.25-.53,17,17,0,0,0,4-1.68A.66.66,0,0,1,39,50l1.81.5,2.39.65,2.48.67.95.22-.2-.75c-.26-1-.52-2-.79-3-.32-1.22-.67-2.43-1-3.65a.83.83,0,0,1,0-.68C45.06,43,45.5,42.05,45.9,41.1ZM19.23,35.41a3,3,0,1,1,3,3A3,3,0,0,1,19.23,35.41Zm7.78,0a3,3,0,1,1,3,3A3,3,0,0,1,27,35.39Zm10.79,3a2.94,2.94,0,0,1-3-3,2.9,2.9,0,0,1,3-3,2.94,2.94,0,0,1,3,3A3,3,0,0,1,37.8,38.36Z"/><path class="cls-2" d="M57.92,39a2.92,2.92,0,0,1-3,3c-1.75,0-3.51,0-5.26,0a2.54,2.54,0,0,1-.29,0,20.63,20.63,0,0,0-3.25-19.2l-.9-1.07a20.2,20.2,0,0,0-15.13-6.77,19.77,19.77,0,0,0-15.17,6.62A20.17,20.17,0,0,0,9.62,37.29l.12.89A20.56,20.56,0,0,0,14.8,49l.1.17,1,1a3.17,3.17,0,0,1,.27.21A19.78,19.78,0,0,0,22,54.19a17.87,17.87,0,0,0,4.37,1.29l.14,0c.44.12.79.18,1.13-.34A2.61,2.61,0,0,1,29.85,54,3,3,0,1,1,29.21,60a2.94,2.94,0,0,1-2-1.7.38.38,0,0,0-.24-.19,24.89,24.89,0,0,1-5.22-1.35,22.61,22.61,0,0,1-7.26-4.53h0l-.6-.58L13,50.72c-.57-.73-1.12-1.41-1.63-2.11a22.24,22.24,0,0,1-2.75-5.13c-.15-.39-.28-.8-.4-1.2A.33.33,0,0,0,7.82,42C6.91,42,6,42,5.09,42a2.89,2.89,0,0,1-2.72-1.63,2.71,2.71,0,0,1-.29-1.29c0-2.47,0-5,0-7.43A2.9,2.9,0,0,1,5,28.75c.61,0,1.22,0,1.83,0a.31.31,0,0,0,.35-.25,22.1,22.1,0,0,1,1.61-4A23.57,23.57,0,0,1,12,19.68a24.26,24.26,0,0,1,5.83-4.85A23,23,0,0,1,21.69,13a24.36,24.36,0,0,1,4.38-1.16,23.34,23.34,0,0,1,5.9-.24,28.53,28.53,0,0,1,3.68.61,22.44,22.44,0,0,1,7.7,3.39,24.06,24.06,0,0,1,8.89,11.12c.22.56.4,1.14.58,1.72.07.23.17.33.42.32a17.42,17.42,0,0,1,2.29.07,2.58,2.58,0,0,1,2.14,1.68,3.63,3.63,0,0,1,.24,1.27C57.93,34.19,57.91,36.61,57.92,39Z"/></svg>