<svg id="Layer_1" data-name="Layer 1" xmlns="http://www.w3.org/2000/svg" viewBox="0 0 50 50"><defs><style>.cls-1{fill:#18a396;}.cls-2{fill:#f06324;}</style></defs><path class="cls-1" d="M4.85,24c-.59,0-1.08,0-1.56,0A2.84,2.84,0,0,1,.65,21a2.9,2.9,0,0,1,2.78-2.74A3.52,3.52,0,0,1,7,19.71,35.06,35.06,0,0,0,10,23a4.71,4.71,0,0,0,3.9,1.67,4.21,4.21,0,0,0,3.62-5.47c-.07-.28-.15-.55-.24-.89H32.6a13.09,13.09,0,0,0-.29,2.25,3.92,3.92,0,0,0,2.53,3.82,4.27,4.27,0,0,0,4.9-1.16c1.43-1.46,2.77-3,4.16-4.52.84-.9,3.75-.56,4.74.53a2.59,2.59,0,0,1-.41,4,4.73,4.73,0,0,1-2.28.57c-.72,0-1,.28-1.06.93q-2.05,11.56-4.14,23.12A2.27,2.27,0,0,1,38.27,50H11.82A2.22,2.22,0,0,1,9.3,47.85Q7.17,36.45,5.07,25C5,24.73,4.94,24.41,4.85,24Zm29.07,5.33V44.24h2.6V29.32ZM16,44.28V29.35H13.41V44.28Zm4.19-15V44.24h2.57V29.32Zm9.57,15V29.35H27.18V44.27Z"/><path class="cls-2" d="M25.72,16.12V10a17.12,17.12,0,0,0,0-2.15c0-.28-.37-.53-.58-.79-.15.31-.43.63-.41.94a6.56,6.56,0,0,0,.36,1.61,12.88,12.88,0,0,1,.08,5.89c-.13.79-.58.83-1.27.66-.16-4.22-1.06-8.21-4.28-11.47L18.55,6c3.15,2.63,3.26,5.88,2.13,9.41-.2.63-.59.74-1.22.83a6.16,6.16,0,0,1-6.64-2.82,33.82,33.82,0,0,0-2.34-2.61,1.52,1.52,0,0,1-.3-1.17C11,6.25,13.56,4.73,17,5.48l.48.11c1-1,1.89-2,2.85-2.92.24-.24.95-.41,1-.3.45.59-.26.7-.54,1a2.94,2.94,0,0,1-.24.21l3.16,2.49L25,2.69l-.49-.95a4,4,0,0,1,1.1-.35c3.13,0,6.25,0,9.37,0,1.17,0,1.2.07.68,1.1a.66.66,0,0,0,0,.53c.91,1.73.71,3.6.72,5.45,0,1.66,0,3.32,0,5a3.42,3.42,0,0,1-2.77,2.75H26.69C26.41,16.18,26.12,16.14,25.72,16.12Z"/><path class="cls-1" d="M34.29,20.35a9.16,9.16,0,0,1,1-1.91c2.57-2.85,5.18-5.65,7.8-8.44,1.15-1.22,2.56-1.43,3.44-.59a2.68,2.68,0,0,1-.15,3.7q-4,4.35-8,8.65a2.35,2.35,0,0,1-2.73.72C34.74,22.12,34.47,21.35,34.29,20.35Z"/><path class="cls-1" d="M15.67,20.39c-.21,1.92-1.72,2.84-3.3,2a4.31,4.31,0,0,1-1.06-.85c-2.51-2.72-5-5.43-7.47-8.23A4.16,4.16,0,0,1,2.89,11,1.94,1.94,0,0,1,5.82,9.16,4.24,4.24,0,0,1,7,10c2.51,2.73,5,5.45,7.48,8.23A11.93,11.93,0,0,1,15.67,20.39Z"/></svg>