<svg id="Layer_1" data-name="Layer 1" xmlns="http://www.w3.org/2000/svg" viewBox="0 0 50 50"><defs><style>.cls-1{fill:#18a396;}.cls-2{fill:#f06324;}</style></defs><path class="cls-1" d="M36.46,39.57H14.2V50.38H11.34V33.81H7.54V27.92H43.13v5.85h-3.8V50.36H36.46ZM18.42,38H31.94c0-.75,0-1.46,0-2.16,0-.51-.14-.64-.64-.64-4.09,0-8.18,0-12.27,0l-.62,0Z"/><path class="cls-2" d="M27.49,26.1a8.65,8.65,0,0,0,2.27-4,9.12,9.12,0,0,0-1.42-7.59,1.18,1.18,0,0,0-1.43-.56c.1.14.18.28.28.41a9.09,9.09,0,0,1-.13,11.11,1.52,1.52,0,0,1-1.39.68c-1.14-.06-2.28,0-3.42,0a.91.91,0,0,1-.85-.44c-2.09-2.94-3-7.07.12-10.76.26-.3.5-.62.8-1h-4.5a4.73,4.73,0,0,1,.16-.49c1.12-2.59,2.26-5.18,3.37-7.78a.72.72,0,0,1,.8-.52c2.21,0,4.42,0,6.62,0a.83.83,0,0,1,.62.33c1.34,2.7,2.66,5.42,4,8.13,0,.07.05.14.09.26H29l.32.46a9.53,9.53,0,0,1,2.38,4.41,9.07,9.07,0,0,1-2,7.15.64.64,0,0,1-.43.22C28.74,26.11,28.19,26.1,27.49,26.1Z"/><path class="cls-1" d="M25.34,37.39c-.43,0-.72-.25-.75-.7s.27-.68.7-.73a.7.7,0,0,1,.75.68A.75.75,0,0,1,25.34,37.39Z"/></svg>