<svg id="Layer_1" data-name="Layer 1" xmlns="http://www.w3.org/2000/svg" viewBox="0 0 50 50"><defs><style>.cls-1{fill:#f06324;}.cls-2{fill:#fefefe;}</style></defs><circle class="cls-1" cx="25" cy="25" r="25"/><path class="cls-2" d="M20.25,30.65c1.86-1.89,3.67-3.74,5.5-5.57,2.74-2.77,5.5-5.52,8.26-8.28a2.19,2.19,0,1,1,3.1,3.06q-7.62,7.65-15.27,15.27a2.21,2.21,0,0,1-3.6-.12L12,27.86a2.21,2.21,0,0,1,.09-3.26,2.16,2.16,0,0,1,3.17.38c1.49,1.68,2.95,3.39,4.43,5.08C19.86,30.23,20,30.39,20.25,30.65Z"/></svg>