<svg id="Layer_1" data-name="Layer 1" xmlns="http://www.w3.org/2000/svg" viewBox="0 0 50 50"><defs><style>.cls-1{fill:#f06324;}.cls-2{fill:#18a396;}</style></defs><path class="cls-1" d="M41.12,14.6l-5.34,3.26-2.94-4.38-.18.07V21a22.91,22.91,0,0,0-4.1.42c.82,2,2.62,2.73,4.06,3.83l0,0V39.91H12.79V13.26L9.72,17.85,4.29,14.58v-.17a4.23,4.23,0,0,0,.62-.65c1.35-2,2.72-4,4-6.1a7.26,7.26,0,0,1,4.54-3.29l4.47-1.19h.68a4.59,4.59,0,0,0,3.95,2.73c2.07.11,3.41-1,4.39-2.73h.68l4.48,1.2a7.05,7.05,0,0,1,4.47,3.24c.9,1.51,1.89,3,2.85,4.43Z"/><path class="cls-2" d="M44.27,24.55a6.82,6.82,0,0,0-5.5-4.32,36.84,36.84,0,0,0-6.11-.57,37.55,37.55,0,0,0-5,.28,7.69,7.69,0,0,0-4.91,2.31c-1.81,2-2.49,4.66-3.35,7.23l3.86,1.33c.34-.93.65-1.75,1-2.7a9.06,9.06,0,0,1,2.15,6.65c-.16,1.72-.36,3.43-.59,5.15s-.47,3.38-.7,5.07-.54,3.31-.82,5h16.9c0-.35-.1-.64-.14-.93-.65-4.71-1.38-9.42-1.93-14.14a8.85,8.85,0,0,1,2.12-6.79c.37.95.69,1.8,1,2.69l3.92-1.38C45.54,27.72,44.89,26.14,44.27,24.55ZM36.1,22.87c-.93.8-1.94,1.52-2.93,2.25a.82.82,0,0,1-.51.15l0,0c-1.44-1.1-3.24-1.81-4.06-3.83a22.91,22.91,0,0,1,4.1-.42,19.69,19.69,0,0,1,4.46.45A7.82,7.82,0,0,1,36.1,22.87Z"/></svg>