<svg id="Layer_1" data-name="Layer 1" xmlns="http://www.w3.org/2000/svg" viewBox="0 0 50 50"><defs><style>.cls-1{fill:#14a295;}.cls-2{fill:#ed6425;}</style></defs><path class="cls-1" d="M34.08,13.09C32,8.74,28.24,7.23,23.34,7.1c-.69.08-1.74.14-2.77.34A10.23,10.23,0,0,0,12.18,17a10.22,10.22,0,0,0,6.74,10.6,13.77,13.77,0,0,0,6.17.73A2.58,2.58,0,0,1,26.24,27a32.87,32.87,0,0,1,5.5-1.34A10.78,10.78,0,0,0,34.08,13.09Zm-5.5,1.7a1.35,1.35,0,1,1-1.34,1.35A1.35,1.35,0,0,1,28.58,14.79Zm-9.76,0a1.35,1.35,0,1,1-1.35,1.35A1.35,1.35,0,0,1,18.82,14.79Zm9.53,9.58c-2.69,2.24-7.19,2.2-9.62-.26A9.07,9.07,0,0,1,17.12,21c-.1-.26.42-.77.65-1.16.32.3.84.56.94.92a4.16,4.16,0,0,0,4,3.43c.29-1.53.18-2.78-1.4-3.56a1.78,1.78,0,0,1-.9-2.29,1.91,1.91,0,0,1,2-1.39c.82,0,1.64,0,2.46,0a1.83,1.83,0,0,1,1.86,1.31,1.94,1.94,0,0,1-.6,2.21,1,1,0,0,1-.28.22c-1.68.69-1.58,2.06-1.35,3.49a4.1,4.1,0,0,0,4-3.4c.1-.37.62-.63,1-.94.23.39.66.78.66,1.16A4.51,4.51,0,0,1,28.35,24.37Z"/><path class="cls-1" d="M29.47,38h0c-3.64,1.78-5.15,6-3.51,10.35a4.69,4.69,0,0,1-4.59.06c2-5.65-.86-9.94-5.06-11a13,13,0,0,1,2.48-7.11,1.43,1.43,0,0,1,1.45-.6c1.5.08,3,.06,4.53,0-.11,1.46.4,3,1.62,3.48,2.2.88,3,4.06,3,4.06Z"/><path class="cls-1" d="M20.57,44.74a7.1,7.1,0,0,1-2.07,4.59,4.37,4.37,0,0,1-6.27-.15,6.39,6.39,0,0,1-.36-8.24,4.46,4.46,0,0,1,7.53.58A19,19,0,0,1,20.57,44.74Z"/><path class="cls-1" d="M31,50.51a4.74,4.74,0,0,1-3-2.21A6.31,6.31,0,0,1,27.65,42a5,5,0,0,1,2-2.23Z"/><path class="cls-1" d="M17.65,29a14.63,14.63,0,0,0-3,7.75c0,.3-.39.64-.69.84-1,.62-2,1.21-3,1.75a1.46,1.46,0,0,1-1.09.18,2.94,2.94,0,0,1-1.79-2.65A10.65,10.65,0,0,1,14,27.3a1.25,1.25,0,0,1,1,.08C15.89,27.87,16.72,28.45,17.65,29Z"/><path class="cls-1" d="M17.24,6.6a34,34,0,0,0-3.17,2.46,29.56,29.56,0,0,0-2.41,3c-1.32-.57-2-1.91-1.89-3.75a4,4,0,0,1,3-3.47A3.91,3.91,0,0,1,17.24,6.6Z"/><path class="cls-1" d="M29.93,6.69a4.09,4.09,0,0,1,4.22-2A4,4,0,0,1,37.54,8.1a4,4,0,0,1-2,4.08A12.6,12.6,0,0,0,29.93,6.69Z"/><path class="cls-1" d="M22.15,18.69h3l.21.22L23.7,20.29,22,19Z"/><path class="cls-2" d="M42.6,50.52H32.37L30.94,37.29H44.06Z"/><path class="cls-2" d="M32.7,35.81,32,36c-.39.11-.59-.06-.74-.41a9.5,9.5,0,0,0-.63-1.28,2.93,2.93,0,0,0-1.52-1.15,3.83,3.83,0,0,1-1.32-.81,2.62,2.62,0,0,1-.76-2.76,2.73,2.73,0,0,1,2.21-1.89l.85-.16a.82.82,0,0,1,1,.37.54.54,0,0,0,.47.2.61.61,0,0,0,.41-.37.86.86,0,0,1,.82-.71l.85-.16a2.73,2.73,0,0,1,3.08,1.43,3,3,0,0,1-.84,3.47,3.21,3.21,0,0,0-1.29,2.79c0,1-.06,1.06-1.16,1.09L32.82,32c-.14-.75-.29-1.5-.4-2.26-.05-.33-.22-.46-.5-.41s-.39.26-.33.57c.36,1.86.71,3.71,1.06,5.57C32.67,35.57,32.68,35.67,32.7,35.81Zm-1.64-5.37a1.89,1.89,0,0,0-1.74-2,1.67,1.67,0,0,0-1.6,1.81,1.9,1.9,0,0,0,1.79,1.92A1.66,1.66,0,0,0,31.06,30.44Zm3.48-2.92a1.68,1.68,0,0,0-1.61,1.81,1.85,1.85,0,0,0,1.68,1.9,1.68,1.68,0,0,0,1.65-1.73A1.86,1.86,0,0,0,34.54,27.52Z"/><path class="cls-2" d="M42.15,26.71c-.09,1.66-.17,3.2-.25,4.75a16.69,16.69,0,0,1-.13,2.13,10.61,10.61,0,0,1-.66,2c-.45,1.15-.46,1.15-1.68,1.14h-1.2v-.91a4.34,4.34,0,0,0,.81,0,2.2,2.2,0,0,0,.57-.25,1.76,1.76,0,0,0-.52-.28,4.22,4.22,0,0,0-.8,0V33.89a9.08,9.08,0,0,0,1.05,0c.13,0,.25-.16.38-.25-.12-.09-.23-.24-.36-.27-.31,0-.64,0-1-.08L38.41,32a6.31,6.31,0,0,0,1,0c.17,0,.31-.18.46-.28a1.54,1.54,0,0,0-.44-.26,9,9,0,0,0-1-.06l.06-1.3a6.57,6.57,0,0,0,.88,0,2,2,0,0,0,.54-.22,1.91,1.91,0,0,0-.49-.29,4.86,4.86,0,0,0-.85-.06V28.26a6.51,6.51,0,0,0,.89,0A2.38,2.38,0,0,0,40,28a1.62,1.62,0,0,0-.5-.3,5.49,5.49,0,0,0-.84-.07v-.94Z"/><path class="cls-2" d="M42.78,36.67l2-4.76.93.37c-.61,1.47-1.18,2.91-1.84,4.3-.1.2-.64.18-1,.26Z"/><path class="cls-2" d="M43.45,31.36l.74.34c-.31.75-.6,1.47-.89,2.19s-.69,1.52-.95,2.31c-.2.58-.53.68-1.11.51Z"/><path class="cls-2" d="M46,31.25l-.23-.07-2-.89a1.14,1.14,0,0,1,1.56-.63A1.1,1.1,0,0,1,46,31.25Z"/><path class="cls-2" d="M34.39,35.86l.16.91c-.78,0-1.54,0-2.29,0-.1,0-.2-.24-.37-.45l1.3-.25Z"/></svg>