<svg id="Layer_1" data-name="Layer 1" xmlns="http://www.w3.org/2000/svg" viewBox="0 0 50 50"><defs><style>.cls-1{fill:#ed6425;}.cls-2{fill:#14a295;}</style></defs><path class="cls-1" d="M28,36.48,36.74,29c3.74,4.34,7.38,8.52,10.94,12.74a1.54,1.54,0,0,1,0,1.5c-2.29,2.14-4.63,4.23-7,6.22A1.72,1.72,0,0,1,39,49.15C35.37,45,31.77,40.81,28,36.48Z"/><path class="cls-2" d="M10.93,49.92A8.61,8.61,0,0,1,10,49.4C8,48,6,46.57,4.13,45a1.83,1.83,0,0,1-.26-1.76q5.22-7.34,10.65-14.51a1.83,1.83,0,0,1,1.76-.22c2,1.3,3.84,2.78,5.78,4.16a1.28,1.28,0,0,1,.32,2.13c-3.5,4.71-7,9.45-10.44,14.17A8.33,8.33,0,0,1,10.93,49.92Z"/><path class="cls-1" d="M29,22.65l-6.3,5.06-1.58-1.79-.34-.38,0-.05c-2.14-2.49-4.27-5-6.48-7.46a2.67,2.67,0,0,1-.69-2.83c.73-2.52,1.36-5.07,2.15-8l9.46,10.91,0,0,2.68,3.21h0Z"/><path class="cls-1" d="M34.67,26.7l-8.56,7.41L22.2,29.59l8.55-7.41Z"/><path class="cls-1" d="M35.64,27c.21.17.6.34.66.58a1.18,1.18,0,0,1-.2,1Q32,32.26,27.74,35.81c-.22.18-.85,0-1.17-.14a1,1,0,0,1,0-1c2.85-2.53,5.75-5,8.64-7.49A1.92,1.92,0,0,1,35.64,27Z"/><path class="cls-1" d="M29,22.65l-6.3,5.06-1.58-1.79c.87-1.87,2.34-5,2.36-5.08s2.3.22,4.4.47h0Z"/><rect class="cls-2" x="0.13" y="24.72" width="47.41" height="0.66" transform="translate(-10.42 29.75) rotate(-54.23)"/><rect class="cls-2" x="32.12" y="10.47" width="0.66" height="5.24" transform="translate(2.86 31.77) rotate(-54.23)"/><rect class="cls-2" x="33.47" y="9.44" width="0.66" height="3.58" transform="translate(4.93 32.08) rotate(-54.23)"/><rect class="cls-2" x="34.71" y="8.36" width="0.66" height="2.28" transform="translate(6.85 32.38) rotate(-54.23)"/><rect class="cls-2" x="35.88" y="7.31" width="0.66" height="1.13" transform="translate(8.65 32.65) rotate(-54.23)"/><rect class="cls-2" x="30.78" y="13.16" width="0.66" height="3.58" transform="translate(61.43 -1.55) rotate(125.77)"/><rect class="cls-2" x="29.53" y="15.55" width="0.66" height="2.28" transform="translate(60.86 2.21) rotate(125.77)"/><rect class="cls-2" x="28.37" y="17.74" width="0.66" height="1.13" transform="translate(60.32 5.73) rotate(125.77)"/></svg>