<svg id="Layer_1" data-name="Layer 1" xmlns="http://www.w3.org/2000/svg" viewBox="0 0 50 50"><defs><style>.cls-1{fill:#f06324;}.cls-2{fill:#18a396;}</style></defs><path class="cls-1" d="M19.64,50H3.58V14.31a5.87,5.87,0,0,1,.59-.05H28c.47,0,.64.13.59.6a11.78,11.78,0,0,0,0,1.2H21.07c-1.2,0-1.43.23-1.43,1.46V50ZM7.13,18.8c0-.86,0-1.72,0-2.58,0-.63-.36-1-.87-1s-.92.4-.92,1q0,2.51,0,5c0,.66.37,1.09.9,1.08s.88-.42.89-1.09S7.13,19.61,7.13,18.8Z"/><path class="cls-2" d="M21.48,23.24H46.42V50H21.48ZM43.77,37.51a9.82,9.82,0,1,0-9.84,9.85A9.85,9.85,0,0,0,43.77,37.51Z"/><path class="cls-1" d="M28.54,12.44H3.59V0h25ZM7.13,8c0-.83,0-1.66,0-2.48s-.36-1.07-.9-1.07-.89.4-.89,1.08c0,1.65,0,3.31,0,5,0,.66.34,1.07.87,1.09s.92-.4.92-1.11S7.13,8.81,7.13,8Z"/><path class="cls-2" d="M46.42,21.4H26V17.89H46.42ZM29.49,18.75h0a8.49,8.49,0,0,0-1,0,.82.82,0,0,0-.77.83.77.77,0,0,0,.7.87,11.94,11.94,0,0,0,2.07,0,.82.82,0,0,0,.77-.93.86.86,0,0,0-.86-.81C30.09,18.72,29.79,18.75,29.49,18.75ZM34,20.51v0c.33,0,.67,0,1-.05a.82.82,0,0,0,.76-.89.8.8,0,0,0-.8-.85,17.38,17.38,0,0,0-1.91,0,.86.86,0,0,0-.84.89.88.88,0,0,0,.82.86C33.31,20.54,33.63,20.51,34,20.51Z"/><path class="cls-2" d="M21.48,17.87h2.61v3.51H21.48Z"/><path class="cls-1" d="M42,37.53a8,8,0,1,1-8-8.06A8,8,0,0,1,42,37.53ZM27.1,37.29a.91.91,0,0,0,.69,1.07.77.77,0,0,0,.95-.41,1.79,1.79,0,0,0,.15-.7,5.06,5.06,0,0,1,1.79-3.57,4.87,4.87,0,0,1,3-1.2c.75,0,1.17-.41,1.13-1s-.44-.84-1.18-.82A6.86,6.86,0,0,0,27.1,37.29Z"/></svg>