<svg id="Layer_1" data-name="Layer 1" xmlns="http://www.w3.org/2000/svg" viewBox="0 0 60 60"><defs><style>.cls-1{fill:#f16223;}.cls-2{fill:#1ea396;}</style></defs><path class="cls-1" d="M42.81,34.4c0-7.4,0-14.81,0-22.21A3.35,3.35,0,0,0,39.4,8.75c-6.22.07-12.44,0-18.67,0a3.15,3.15,0,0,0-3.34,3.36c0,.79,0,1.59,0,2.39,0,.52-.16,1-.15,1.56,0,.72.16,1.44.15,2.16,0,1-.15,2-.19,3,0,.62,0,1.23,0,1.85,0,1.17.19,2.33.19,3.5q0,15,0,30A3.17,3.17,0,0,0,20.79,60c6.16,0,12.32-.06,18.47,0a3.41,3.41,0,0,0,3.58-3.57C42.79,49.09,42.81,41.74,42.81,34.4ZM27.64,10.71h.14a.41.41,0,0,1,.28-.11h3.88a.42.42,0,0,1,.42.42.41.41,0,0,1-.42.42H28.06a.42.42,0,0,1-.42-.42.48.48,0,0,1,.07-.23Zm13.2,42.95H19.39V14.58H40.84Z"/><rect class="cls-2" x="21.05" y="16.67" width="7.72" height="6.21"/><rect class="cls-2" x="21.05" y="24.63" width="7.72" height="6.21"/><rect class="cls-2" x="21.05" y="32.59" width="7.72" height="6.21"/><rect class="cls-2" x="21.05" y="40.54" width="7.72" height="6.21"/><rect class="cls-2" x="21.05" y="48.5" width="7.72" height="5.09"/><path class="cls-2" d="M39,23H28.69V16.59H39ZM28.85,22.8h10v-6h-10Z"/><path class="cls-2" d="M39,30.92H28.69V24.55H39Zm-10.14-.17h10v-6h-10Z"/><path class="cls-2" d="M39,38.88H28.69V32.5H39Zm-10.14-.17h10v-6h-10Z"/><path class="cls-2" d="M39,46.83H28.69V40.46H39Zm-10.14-.17h10v-6h-10Z"/><path class="cls-2" d="M39,53.67H28.69V48.41H39ZM28.85,53.5h10V48.58h-10Z"/></svg>