<svg id="Layer_1" data-name="Layer 1" xmlns="http://www.w3.org/2000/svg" viewBox="0 0 60 60"><defs><style>.cls-1{fill:#1ea396;}.cls-2{fill:#f16223;}</style></defs><path class="cls-1" d="M8.82,40l2.69,1.13c3.46,1.47,6.88,3.06,10.4,4.37,2.81,1.05,5.74,1.77,8.62,2.64l.45.14c-.15.73-.33,1.41-.43,2.11a4.55,4.55,0,0,0,4.09,5,3.27,3.27,0,0,0,2.77-1.18,14.39,14.39,0,0,0,2.43-3.91c1.9-3.74,3.28-7.7,4.87-11.56,2.1-5.1,4.14-10.21,6.21-15.32l.14-.39L27.5,17l-1.85,4.78q-3.27,8.4-6.52,16.82c-.34.87-.91,1.34-1.55,1.27a1.47,1.47,0,0,1-1.38-1.75,8.21,8.21,0,0,1,.46-1.75q4.2-10.7,8.42-21.37a3.18,3.18,0,0,1,3.23-1.73l21.53,4.63c.89.19,1.77.41,2.64.65a6.19,6.19,0,0,1,1.08.42,2.9,2.9,0,0,1,1.77,3.76c-.44,1.51-1,3-1.61,4.44-2.4,6.23-4.86,12.42-7.19,18.67a84.63,84.63,0,0,1-5.44,11.06c-1.1,2-3.1,2.84-5.38,3a13.23,13.23,0,0,1-6-1.43c-5.66-2.53-11.35-5-17-7.5A6.7,6.7,0,0,1,9,46.34a12.94,12.94,0,0,1-.27-5.4Z"/><path class="cls-2" d="M28.67,41.94l1.84-3,8.78,2.41L38,43.47c-.55.91-.54.91-1.56.63l-7.29-2Z"/><path class="cls-2" d="M45.14,27l-1.79,3-8.78-2.42c.6-1,1.16-1.93,1.75-2.86a.36.36,0,0,1,.33-.11l8.42,2.33S45.09,26.92,45.14,27Z"/><path class="cls-2" d="M42.82,34.14,41.11,37a.43.43,0,0,1-.37.13c-2.82-.76-5.63-1.54-8.53-2.34l1-1.66c.28-.45.5-1.1.91-1.27s1,.18,1.48.32L42.35,34Z"/><path class="cls-2" d="M22.75,38.64a2.37,2.37,0,1,1,2.33,2.42A2.39,2.39,0,0,1,22.75,38.64Z"/><path class="cls-2" d="M32.22,24.16a2.38,2.38,0,1,1-2.38-2.38A2.39,2.39,0,0,1,32.22,24.16Z"/><path class="cls-2" d="M27.43,33.83a2.41,2.41,0,0,1,0-4.82,2.41,2.41,0,1,1,0,4.82Z"/></svg>