<svg id="Layer_1" data-name="Layer 1" xmlns="http://www.w3.org/2000/svg" viewBox="0 0 60 60"><defs><style>.cls-1{fill:#f16223;}.cls-2{fill:#1ea396;}.cls-3{fill:#fff;}</style></defs><ellipse class="cls-1" cx="45.21" cy="47.62" rx="7.07" ry="6.84"/><path class="cls-2" d="M51.35,19H11.94a3.47,3.47,0,0,0-.79.08,3.56,3.56,0,0,0-2.86,3.56q0,10.68,0,21.35V44a3.58,3.58,0,0,0,3.84,3.75H36.71a8.61,8.61,0,0,1,7.45-8.44,8.24,8.24,0,0,1,5.48,1.16,8.49,8.49,0,0,1,4.09,6.4c.13-.11.22-.17.3-.25a3.67,3.67,0,0,0,1-2.59V22.63A3.57,3.57,0,0,0,51.35,19ZM11.7,22.35a.79.79,0,0,1,.84-.84c1.43,0,2.86,0,4.29,0a.8.8,0,0,1,.85.84c0,.55,0,1.11,0,1.66a.8.8,0,0,1-.89.85H12.58A.79.79,0,0,1,11.7,24C11.69,23.44,11.69,22.89,11.7,22.35Zm.16,13.93h5.83a.69.69,0,0,1,.65.69.63.63,0,0,1-.67.64c-1,0-2,0-3,0s-1.86,0-2.79,0c-.53,0-.84-.25-.84-.66S11.34,36.28,11.86,36.28Zm13.93,4.49c-.63,0-1.27,0-1.91,0H22a.64.64,0,0,1-.72-.63.67.67,0,0,1,.71-.7h3.79a.7.7,0,0,1,.74.65A.67.67,0,0,1,25.79,40.77Zm-.11-3.15H20c-.5,0-.79-.25-.8-.65s.31-.69.81-.69h5.67c.53,0,.84.27.84.68S26.21,37.62,25.68,37.62Zm7.44,3.15H29.45c-.49,0-.8-.25-.81-.65s.32-.67.83-.68H33.1c.48,0,.79.26.79.66S33.6,40.77,33.12,40.77Zm1.53-3.43a1,1,0,0,1-.64.27c-1,0-1.91,0-2.87,0s-1.85,0-2.79,0c-.54,0-.87-.26-.85-.68s.33-.66.85-.66H34c.33,0,.65.08.75.41A.84.84,0,0,1,34.65,37.34Zm8.43-.17a.71.71,0,0,1-.76.46H39.44c-.94,0-1.87,0-2.8,0-.54,0-.83-.24-.84-.65s.31-.69.82-.69h5.67C42.9,36.28,43.24,36.69,43.08,37.17Zm8-5.52c0,.66-.31,1-.95,1h-6c-.66,0-.94-.29-1-1V28.37c0-.66.3-.95,1-1h6c.64,0,.94.29.95.95Z"/><path class="cls-3" d="M39.44,37.62h-2.8c-.54,0-.83-.24-.84-.65s.31-.69.82-.69h5.67c.61,0,1,.4.78.89a.68.68,0,0,1-.76.45Z"/><path class="cls-1" d="M14.69,50.52A18.64,18.64,0,0,1,8,49.47,6.43,6.43,0,0,1,5.9,48.28a3.13,3.13,0,0,1-.39-.42,1.61,1.61,0,0,1,0-2.13,4.33,4.33,0,0,1,1.56-1.19,13.64,13.64,0,0,1,4.19-1.22,22.88,22.88,0,0,1,8.33.28,10.15,10.15,0,0,1,2.92,1.07,5.65,5.65,0,0,1,1.17.89,1.67,1.67,0,0,1,0,2.51,5.88,5.88,0,0,1-2.3,1.4,18.45,18.45,0,0,1-5.79,1.05Z"/><path class="cls-1" d="M24.26,49.27v.34c0,.59,0,1.19,0,1.79a2.14,2.14,0,0,1-.83,1.8,7.53,7.53,0,0,1-2.7,1.38,20.87,20.87,0,0,1-7.2.81,17.78,17.78,0,0,1-5.5-1,6.65,6.65,0,0,1-2.11-1.18,2.13,2.13,0,0,1-.82-1.8c0-.6,0-1.21,0-1.82v-.28h.07a3.47,3.47,0,0,0,1.86,1.85,13,13,0,0,0,4.18,1.24,22.45,22.45,0,0,0,8.64-.34,9.9,9.9,0,0,0,2.83-1.12,3,3,0,0,0,1.49-1.68Z"/><path class="cls-1" d="M5.16,53.78A3.93,3.93,0,0,0,7.54,56,14.41,14.41,0,0,0,11.71,57a22.66,22.66,0,0,0,7.66-.3,10.74,10.74,0,0,0,3.3-1.21,3.4,3.4,0,0,0,1.57-1.69,2.45,2.45,0,0,1,0,.27c0,.65,0,1.3,0,2a2,2,0,0,1-.64,1.53A6.24,6.24,0,0,1,21.16,59a17.83,17.83,0,0,1-5,.94,22,22,0,0,1-6.27-.46,10,10,0,0,1-3.53-1.41,4.3,4.3,0,0,1-.78-.7,1.61,1.61,0,0,1-.45-1.12c0-.74,0-1.48,0-2.22A2.42,2.42,0,0,1,5.16,53.78Z"/><path class="cls-3" d="M43.72,48.77c.69-.69,1.34-1.36,2-2l2.2-2.2a.93.93,0,0,1,1.61.42.85.85,0,0,1-.25.84c-1.64,1.65-3.28,3.3-4.93,4.93a.88.88,0,0,1-1.27,0c-.67-.64-1.33-1.3-2-2a.91.91,0,0,1,0-1.32.93.93,0,0,1,1.3,0C42.87,47.9,43.28,48.33,43.72,48.77Z"/></svg>