<svg id="Layer_1" data-name="Layer 1" xmlns="http://www.w3.org/2000/svg" viewBox="0 0 371.52 679.92"><defs><style>.cls-1{fill:#f16223;}.cls-2{fill:#1ea396;}.cls-3{fill:none;stroke:#1ea396;stroke-miterlimit:10;stroke-width:2px;}</style></defs><path class="cls-1" d="M338.77,344.18c0-88.66-.26-177.32.19-266,.1-20-14.57-41.47-41.08-41.16-74.48.86-149,.29-223.45.31-24.24,0-39.88,15.73-40,40.15,0,9.53.21,19.08-.14,28.6-.22,6.27-1.88,12.52-1.81,18.77.1,8.6,1.88,17.21,1.74,25.79-.2,11.91-1.7,23.79-2.28,35.7-.36,7.36-.3,14.76,0,22.12.64,14,2.32,27.93,2.34,41.9q.28,179.37.09,358.76c0,25.28,15.62,41.13,40.72,41.13,73.71,0,147.43-.72,221.13.33,28.66.41,42.9-21.54,42.76-42.77C338.42,520,338.77,432.07,338.77,344.18ZM157.17,60.5h1.67a4.94,4.94,0,0,1,3.31-1.27h46.43a5,5,0,1,1,0,10.06H162.15A5,5,0,0,1,158,61.48C157.72,61.17,157.46,60.84,157.17,60.5Zm158,514.23H58.32V106.84h256.8Z"/><rect class="cls-2" x="78.23" y="131.93" width="92.41" height="74.29"/><rect class="cls-2" x="78.23" y="227.18" width="92.41" height="74.29"/><rect class="cls-2" x="78.23" y="322.43" width="92.41" height="74.29"/><rect class="cls-2" x="78.23" y="417.67" width="92.41" height="74.29"/><rect class="cls-2" x="78.23" y="512.92" width="92.41" height="60.94"/><rect class="cls-3" x="170.64" y="131.93" width="121.35" height="74.29" transform="translate(462.63 338.16) rotate(180)"/><rect class="cls-3" x="170.64" y="227.18" width="121.35" height="74.29" transform="translate(462.63 528.65) rotate(180)"/><rect class="cls-3" x="170.64" y="322.43" width="121.35" height="74.29" transform="translate(462.63 719.15) rotate(180)"/><rect class="cls-3" x="170.64" y="417.67" width="121.35" height="74.29" transform="translate(462.63 909.64) rotate(180)"/><rect class="cls-3" x="170.64" y="512.92" width="121.35" height="60.94" transform="translate(462.63 1086.78) rotate(180)"/></svg>