<svg id="Layer_1" data-name="Layer 1" xmlns="http://www.w3.org/2000/svg" viewBox="0 0 60 60"><defs><style>.cls-1{fill:#1ea396;}.cls-2{fill:#f16223;}.cls-3{fill:#fff;}</style></defs><path class="cls-1" d="M51.85,30.07v1.74a1.6,1.6,0,0,0-.05.21,15.53,15.53,0,0,1-.91,4.41A15.85,15.85,0,0,0,41,33a15.3,15.3,0,0,0-15.54,15,14.67,14.67,0,0,0,.2,2.4A26.61,26.61,0,0,1,19,49.19a4.37,4.37,0,0,0-3.24.17c-2.35,1-4.72,2-7.08,3l-1.39.55c-.3.11-.46,0-.44-.32A7,7,0,0,1,7,51.67c.49-2.18,1-4.37,1.49-6.55A5.71,5.71,0,0,0,8.64,44a2.55,2.55,0,0,0-.76-1.51c-.55-.72-1.13-1.4-1.64-2.15a16.48,16.48,0,0,1-3-8.87,16.06,16.06,0,0,1,2.41-9,21.08,21.08,0,0,1,8.13-7.58A27.12,27.12,0,0,1,25.3,11.52a31.71,31.71,0,0,1,6.53.2,28.09,28.09,0,0,1,8.05,2.4A22.34,22.34,0,0,1,48.46,21a16.64,16.64,0,0,1,3.25,7.88C51.76,29.28,51.8,29.67,51.85,30.07Z"/><ellipse class="cls-2" cx="41.02" cy="48.05" rx="12.35" ry="11.95"/><path class="cls-3" d="M38.42,50.06l3.5-3.54q1.92-1.94,3.85-3.84a1.63,1.63,0,0,1,2.82.73,1.51,1.51,0,0,1-.43,1.47q-4.3,4.32-8.62,8.62a1.56,1.56,0,0,1-2.22,0q-1.76-1.68-3.44-3.44a1.57,1.57,0,0,1,.06-2.3,1.59,1.59,0,0,1,2.26,0C36.94,48.53,37.65,49.28,38.42,50.06Z"/></svg>