<svg id="Layer_1" data-name="Layer 1" xmlns="http://www.w3.org/2000/svg" viewBox="0 0 60 60"><defs><style>.cls-1{fill:#1ea396;}.cls-2{fill:#f16223;}</style></defs><path class="cls-1" d="M21.54,14.69V10.47c0-.63.22-.85.85-.85H32.84c.62,0,.84.22.84.86v4.21a23,23,0,0,1,6.7,3,22.67,22.67,0,0,1,4,3.46A22.08,22.08,0,0,1,48,26.1a18.3,18.3,0,0,1,1.71,4.23A2,2,0,0,1,48,32.59,2,2,0,0,1,45.73,31a17.29,17.29,0,0,0-2.16-4.5c-.54-.81-1.15-1.58-1.78-2.44-.65.67-1.23,1.3-1.85,1.89a2.53,2.53,0,0,1-1,.61.77.77,0,0,1-1-.53,1,1,0,0,1,.22-1.14c.63-.61,1.26-1.22,1.88-1.84a3.21,3.21,0,0,0,.27-.32,18.91,18.91,0,0,0-11.81-4.85c0,1.06,0,2.07,0,3.07a.89.89,0,0,1-1,1,.87.87,0,0,1-.9-.93c0-1,0-2,0-3.11a19,19,0,0,0-11.92,4.95c.75.68,1.46,1.35,2.19,2a1,1,0,0,1,.12,1.49,1.13,1.13,0,0,1-1.58-.15c-.67-.66-1.36-1.3-2.08-2A19,19,0,0,0,8.58,36H11.7a.87.87,0,0,1,.93.94.91.91,0,0,1-.93,1H8.59a19.07,19.07,0,0,0,4.9,11.87c.39-.41.75-.82,1.12-1.21s.64-.66,1-1A1,1,0,1,1,17,49c-.71.69-1.4,1.39-2.1,2.09,1.58,2.29,8.41,5.11,11.78,4.85,0-1,0-2,0-2.92a1,1,0,1,1,1.92,0c0,1,0,1.93,0,3,.59-.05,1.14,0,1.68-.13a19.89,19.89,0,0,0,4.16-1.08,19.12,19.12,0,0,0,3.76-1.94,2,2,0,0,1,2.7.27,2,2,0,0,1-.35,3,22.93,22.93,0,0,1-8.07,3.44A21.84,21.84,0,0,1,26.8,60a23.15,23.15,0,0,1-9.19-2.28,22.41,22.41,0,0,1-4.37-2.77,25,25,0,0,1-3.73-3.75A23.14,23.14,0,0,1,7,47.26,23.4,23.4,0,0,1,4.55,36.69a23.45,23.45,0,0,1,.87-6,23.21,23.21,0,0,1,16.12-16Z"/><path class="cls-2" d="M27,42.6h5.22v2.88H23.62c0-.9,0-1.81,0-2.71a2.66,2.66,0,0,1,.45-.91c.51-1,1-1.9,1.54-2.86.9-1.72,1.8-3.43,2.68-5.16a8.41,8.41,0,0,0,.94-2.14,9.94,9.94,0,0,0,0-2.83c-.1-.79-.58-1-1.6-1a1.11,1.11,0,0,0-1.08,1c-.09.67-.1,1.34-.14,2h-2.8c0-1.36-.17-2.71.62-4a4.38,4.38,0,0,1,6.87-.75,4.45,4.45,0,0,1,1.06,2.44,8.67,8.67,0,0,1-.1,3.76,17.21,17.21,0,0,1-1.22,2.75c-.7,1.4-1.44,2.78-2.16,4.17l-1.38,2.65C27.24,42.21,27.16,42.37,27,42.6Z"/><path class="cls-2" d="M39.84,45.5H38.47c0-.16,0-.31,0-.46V40.79c0-.53-.21-.81-.6-.83s-.69.14-.7.75c0,1.59,0,3.17,0,4.78H35.76v-6.8h1.31c0,.16,0,.32,0,.51,1-.81,1.6-.91,2.6,0a1.93,1.93,0,0,1,1.48-.63A1.44,1.44,0,0,1,42.6,40c0,1.82,0,3.64,0,5.5H41.22V45c0-1.42,0-2.85,0-4.28,0-.5-.24-.77-.66-.79a.54.54,0,0,0-.63.5,3.94,3.94,0,0,0-.09.76C39.83,42.64,39.84,44.05,39.84,45.5Z"/><path class="cls-2" d="M50.41,45.49H49V43.75c0-1,0-2,0-3,0-.45-.21-.72-.59-.76s-.63.12-.71.65a8.29,8.29,0,0,0-.08,1.11c0,1.24,0,2.48,0,3.76H46.29V38.7h1.32l.06.56A1.8,1.8,0,0,1,49,38.57a1.37,1.37,0,0,1,1.42,1.31C50.43,41.74,50.41,43.6,50.41,45.49Z"/><path class="cls-2" d="M51.37,43.54h1.24c0,.07,0,.14.07.22a.65.65,0,0,0,.75.54.72.72,0,0,0,.7-.57.75.75,0,0,0-.46-.9c-.5-.23-1-.43-1.5-.7a1.69,1.69,0,0,1-.78-1.74,1.86,1.86,0,0,1,1.22-1.65A1.93,1.93,0,0,1,55.3,40c0,.17,0,.35.07.56H54.13a2.32,2.32,0,0,0-.27-.46.68.68,0,0,0-1,0,.67.67,0,0,0,0,1,4.73,4.73,0,0,0,1,.49,2.17,2.17,0,0,1,1.36,1.08,2.24,2.24,0,0,1-.63,2.63,2.2,2.2,0,0,1-2.7-.17A1.76,1.76,0,0,1,51.37,43.54Z"/><path class="cls-2" d="M45.1,45.49H43.76V38.7H45.1Z"/><path class="cls-2" d="M45.09,37.25H43.77V35.92h1.32Z"/></svg>