<svg id="Layer_1" data-name="Layer 1" xmlns="http://www.w3.org/2000/svg" viewBox="0 0 60 60"><defs><style>.cls-1{fill:#1ea396;}.cls-2{fill:#f16223;}</style></defs><path class="cls-1" d="M53.62,28.4V26c0-4.07-2.58-6.63-6.65-6.63H12.57c-4.15,0-6.72,2.55-6.72,6.67q0,10.56,0,21.13c0,3.19,1.56,5.45,4.18,6.31a8,8,0,0,0,2.53.38H47a7.9,7.9,0,0,0,2.5-.38c2.6-.86,4.16-3.11,4.16-6.24V44.38c-.22.26-.46.5-.67.75l-1.49,1.71v.75c0,1.72-.61,2.34-2.32,2.34H10.41c-1.8,0-2.4-.6-2.4-2.37V25.65c0-1.72.6-2.34,2.31-2.34H49.17c1.66,0,2.3.62,2.3,2.25v.92Z"/><path class="cls-1" d="M56.59,56.57v2.12A1.26,1.26,0,0,1,55.39,60H4.08a1.26,1.26,0,0,1-1.2-1.31V56.57H22.2a1.44,1.44,0,0,1,1.46.66,1.89,1.89,0,0,0,1.41.64c3.11.06,6.22.05,9.34,0a1.72,1.72,0,0,0,1.33-.57c.43-.75,1-.74,1.64-.74H56.59Z"/><path class="cls-2" d="M56.41,35.71c-2,2.31-4.59,4.73-7,7.18-1,1-1.9,2-2.74,2.93,0-.22,0-.44,0-.67s0-.71,0-1c0-1.13.1-2.25,0-3.25h0c-4-.59-7,0-10.18,2.66a35.82,35.82,0,0,0-2.66,2.71v-.71A35.08,35.08,0,0,1,35,40.35c2-5.12,6-7.69,11.28-8.54a2.79,2.79,0,0,0,.43-.06c.07,0,0-.06,0-.15s0-.41,0-.61v-.74c0-.91,0-1.85,0-2.86,0-.12,0-.24,0-.36h0l2.75,2.45C51.77,31.56,54.08,33.63,56.41,35.71Z"/></svg>