<svg id="Layer_1" data-name="Layer 1" xmlns="http://www.w3.org/2000/svg" viewBox="0 0 60 60"><defs><style>.cls-1{fill:#1ea396;}.cls-2{fill:#f16223;}</style></defs><path class="cls-1" d="M53.33,34.59a4.84,4.84,0,0,1-1-1c-2.59-3.16-5.55-5.46-10-4.56-.19,0-.43-.13-.78-.24,0-.06,0-.13,0-.19-.15-2-.29-3.91-3.27-3.86-8.85.12-17.7.06-26.55,0-2.12,0-3.05.92-3,3l0,1.57,10.72,8.94L8.71,49.85V52.6c2.06,0,4.12,0,6.16,0h.84c.7,4.16,2.14,6,4.88,6a4.39,4.39,0,0,0,3.08-.87,34.81,34.81,0,0,0,3.18-5.08H42.43c.62,4.13,2.07,5.86,4.86,6s4.43-1.44,5.63-6.12h2.53c.45,0,.85,0,1.19,0h0c2.12-.16,2.24-.88,2.58-3.69C59.94,42.88,58.43,38.05,53.33,34.59Zm-31.66,22-.06.08-1.08,0-.08-.1a3,3,0,1,1,1.22,0Zm25.68.08a2.95,2.95,0,1,1,2.95-3A2.95,2.95,0,0,1,47.35,56.7ZM44.27,39.65c0-2.35-.07-4.57,0-6.77.07-1.31,1.76-1.87,2.87-.75,2.4,2.4,4.57,5,6.79,7.52Z"/><path class="cls-1" d="M27.15,52.67a6.24,6.24,0,0,0-12.28-.09,5.66,5.66,0,0,0-.12,1.17,6.25,6.25,0,0,0,12.5,0A5.49,5.49,0,0,0,27.15,52.67ZM21,50.81a2.94,2.94,0,0,1,.67,5.81l-1.22,0A2.95,2.95,0,0,1,21,50.81Zm-.55,5.84a3.31,3.31,0,0,0,.55.05,2.93,2.93,0,0,0,.67-.08Z"/><path class="cls-1" d="M53.48,52.56a6.24,6.24,0,0,0-12.28.11,5.49,5.49,0,0,0-.1,1.08,6.25,6.25,0,0,0,12.5,0A5.79,5.79,0,0,0,53.48,52.56Zm-6.13-1.75a2.95,2.95,0,1,1-3,2.94A2.95,2.95,0,0,1,47.35,50.81Z"/><path class="cls-1" d="M40.53,28.58H48l12,12v12H56.64l.55-3.62-.66-6.29-.71-3-.5-1.53-6.94-6.84S45.49,30,45.19,30H41.1Z"/><path class="cls-2" d="M.34,45.82A25.19,25.19,0,0,1,1.18,42c1.47-3.8,4.45-5.71,8.36-6.33l.32,0,.19-.09-.2-3.42,7.23,6.44-6.36,7.28-.25-3.39c-3-.44-5.78-.1-8.17,1.89-.71.6-1.31,1.33-2,2Z"/></svg>